<svg width="44" height="44" viewBox="0 0 44 44" fill="none" xmlns="http://www.w3.org/2000/svg">
<path d="M41.274 22L43.7058 17.7973C43.998 17.2917 44.0775 16.6907 43.9267 16.1265C43.776 15.5622 43.4073 15.081 42.9018 14.7885L38.6947 12.3568V7.51096C38.6947 6.92678 38.4627 6.36653 38.0496 5.95346C37.6365 5.54038 37.0763 5.30832 36.4921 5.30832H31.6485L29.219 1.10347C28.9255 0.598875 28.4452 0.230128 27.882 0.077032C27.6026 0.00129602 27.3109 -0.0182329 27.024 0.0195773C26.737 0.0573874 26.4604 0.151785 26.2101 0.297297L22.0031 2.72902L17.796 0.295094C17.2901 0.00301801 16.6889 -0.0761332 16.1247 0.0750517C15.5604 0.226237 15.0793 0.595374 14.7872 1.10126L12.3555 5.30832H7.51188C6.92771 5.30832 6.36745 5.54038 5.95438 5.95346C5.5413 6.36653 5.30924 6.92678 5.30924 7.51096V12.3546L1.10218 14.7863C0.851152 14.9307 0.631127 15.1233 0.454748 15.353C0.278368 15.5826 0.149112 15.8449 0.0744044 16.1247C-0.000303062 16.4045 -0.0189891 16.6963 0.01942 16.9834C0.057829 17.2704 0.152576 17.547 0.298217 17.7973L2.72994 22L0.298217 26.2026C0.0074433 26.7087 -0.0714484 27.3093 0.0787422 27.8733C0.228933 28.4374 0.596024 28.9191 1.09998 29.2136L5.30703 31.6454V36.489C5.30703 37.0732 5.5391 37.6334 5.95217 38.0465C6.36525 38.4596 6.9255 38.6916 7.50968 38.6916H12.3555L14.7872 42.8987C14.9822 43.232 15.2607 43.5089 15.5951 43.702C15.9296 43.8951 16.3085 43.9978 16.6947 44C17.078 44 17.459 43.8987 17.7982 43.7026L22.0009 41.2709L26.2079 43.7026C26.7137 43.9943 27.3145 44.0735 27.8786 43.9227C28.4426 43.772 28.9239 43.4037 29.2168 42.8987L31.6463 38.6916H36.4899C37.0741 38.6916 37.6343 38.4596 38.0474 38.0465C38.4605 37.6334 38.6925 37.0732 38.6925 36.489V31.6454L42.8996 29.2136C43.1502 29.0688 43.3698 28.876 43.5458 28.6463C43.7219 28.4166 43.8509 28.1544 43.9256 27.8747C44.0003 27.5951 44.0191 27.3035 43.981 27.0166C43.9429 26.7297 43.8486 26.4531 43.7036 26.2026L41.274 22ZM16.4943 10.9647C17.3708 10.965 18.2114 11.3135 18.831 11.9335C19.4506 12.5536 19.7985 13.3943 19.7982 14.2709C19.7979 15.1474 19.4495 15.988 18.8294 16.6076C18.2094 17.2272 17.3686 17.5751 16.4921 17.5749C15.6155 17.5746 14.775 17.2261 14.1554 16.606C13.5357 15.986 13.1878 15.1452 13.1881 14.2687C13.1884 13.3921 13.5369 12.5516 14.1569 11.932C14.7769 11.3124 15.6177 10.9644 16.4943 10.9647ZM17.1551 32.1101L13.6308 29.4691L26.8467 11.848L30.3709 14.4889L17.1551 32.1101ZM27.5075 32.9912C27.0735 32.991 26.6437 32.9054 26.2428 32.7392C25.8419 32.5729 25.4776 32.3294 25.1708 32.0224C24.864 31.7154 24.6207 31.3509 24.4547 30.9499C24.2887 30.5488 24.2034 30.119 24.2035 29.685C24.2037 29.251 24.2893 28.8212 24.4555 28.4203C24.6218 28.0194 24.8653 27.6551 25.1723 27.3483C25.4794 27.0415 25.8438 26.7982 26.2448 26.6322C26.6459 26.4662 27.0757 26.3809 27.5097 26.381C28.3863 26.3813 29.2268 26.7298 29.8464 27.3498C30.466 27.9699 30.814 28.8106 30.8137 29.6872C30.8134 30.5638 30.4649 31.4043 29.8449 32.0239C29.2248 32.6435 28.3841 32.9915 27.5075 32.9912Z" fill="#0070FF"/>
</svg>
