<svg width="116" height="64" viewBox="0 0 116 64" fill="none" xmlns="http://www.w3.org/2000/svg">
<path d="M93.1772 62.163C93.1745 62.1966 93.1478 62.2233 93.1141 62.226H93.051V62.1H93.1428C93.1764 62.1027 93.2031 62.1294 93.2059 62.163H93.1772ZM93.2231 62.3979L93.137 62.2604C93.1864 62.2546 93.2234 62.2126 93.2231 62.163C93.2231 62.1346 93.2114 62.1075 93.1908 62.088C93.1702 62.0685 93.1424 62.0583 93.1141 62.0599H92.9765V62.3979H93.051V62.2604H93.1141L93.2001 62.3921L93.2231 62.3979ZM93.3377 62.2318C93.3377 62.3678 93.2273 62.4781 93.0912 62.4781C92.954 62.4781 92.8419 62.3687 92.8388 62.2318C92.8388 62.0926 92.9518 61.9797 93.0912 61.9797C93.1576 61.9797 93.2212 62.0064 93.2676 62.0539C93.314 62.1013 93.3393 62.1654 93.3377 62.2318ZM93.3836 62.2318C93.3836 62.0704 93.2527 61.9396 93.0912 61.9396C92.9296 61.9396 92.7987 62.0704 92.7987 62.2318C92.7987 62.3931 92.9296 62.5239 93.0912 62.5239C93.2527 62.5239 93.3836 62.3931 93.3836 62.2318ZM92.9478 55.9307C92.6153 55.9106 92.314 56.1256 92.2252 56.4463L91.3708 59.3104L90.912 55.9479H88.7959C88.4634 55.9278 88.1621 56.1427 88.0733 56.4635L86.2611 62.5124H88.555L89.6045 59.0068L90.0518 62.5124H92.4947L94.4618 55.9479L92.9478 55.9307ZM79.9931 55.9307C81.8512 55.988 82.0805 56.853 81.9085 57.8554C81.7391 58.7291 81.0877 59.4309 80.2282 59.6655C80.4973 59.8624 80.65 60.1805 80.6354 60.5133L80.8361 62.4952H78.4333L78.3473 60.3414C78.3473 60.0436 78.2383 59.9061 77.9344 59.8946H77.7394L76.9595 62.4952H74.6312L76.4204 56.4234C76.5092 56.1026 76.8105 55.8877 77.143 55.9078H79.9702M79.087 57.3055H78.4849L78.1351 58.4511H78.743C79.3164 58.4511 79.5286 58.3824 79.6777 57.8783C79.8268 57.3742 79.586 57.3055 79.1042 57.3055H79.087ZM81.8167 59.0927C82.5107 56.853 83.9328 55.7703 86.1178 55.8276C86.6215 55.8296 87.1235 55.8872 87.6145 55.9995L87.0697 57.821C86.652 57.7392 86.228 57.6932 85.8024 57.6836C85.0626 57.6836 84.621 57.9528 84.2483 59.1557C83.8755 60.3586 84.1106 60.6508 84.8905 60.6679C85.3406 60.6815 85.791 60.6624 86.2382 60.6107L85.6647 62.4666C85.0931 62.5238 84.5181 62.5391 83.9443 62.5124C81.7594 62.4552 81.077 61.3152 81.7766 59.0755M69.3151 58.3652L70.5194 61.2866L71.5516 58.3652H72.4463L70.8979 62.5182C70.5194 63.5378 69.8599 64.0533 68.9366 63.996V63.1826C69.4391 63.2259 69.8956 62.89 70.0033 62.3979L70.0434 62.3177L68.323 58.3652H69.3151ZM60.8564 56.7556V62.3864H59.9848V61.8136C59.6612 62.2664 59.1304 62.525 58.574 62.501C57.4466 62.4424 56.5625 61.5121 56.5625 60.3844C56.5625 59.2567 57.4466 58.3264 58.574 58.2678C59.1266 58.243 59.6554 58.4942 59.9848 58.938V56.7613L60.8564 56.7556ZM64.756 56.7499V58.9266C65.0868 58.4844 65.6146 58.2336 66.1668 58.2564C66.7144 58.2683 67.2345 58.4984 67.6114 58.8953C67.9614 59.2639 68.1611 59.7481 68.1742 60.2532L68.1739 60.3758C68.1893 60.9228 67.9865 61.4535 67.61 61.851C67.2336 62.2485 66.7144 62.4803 66.1668 62.4952C65.611 62.5161 65.0816 62.2582 64.756 61.8079V62.3807H63.8901V56.7499H64.756ZM37.5677 58.8653C38.1774 59.4727 38.3605 60.3872 38.0315 61.182C37.7026 61.9768 36.9264 62.4952 36.0654 62.4952C35.5002 62.5014 34.9563 62.2803 34.5562 61.8816C34.156 61.483 33.9331 60.9403 33.9378 60.3758C33.9355 59.5158 34.4524 58.7391 35.2472 58.4083C36.042 58.0776 36.9581 58.258 37.5677 58.8653ZM54.0322 58.2564C54.5859 58.2574 55.1151 58.4842 55.4973 58.8844C55.8795 59.2846 56.0815 59.8233 56.0565 60.3758C56.0541 60.4987 56.0426 60.6212 56.0221 60.7424H52.8164C52.9443 61.3362 53.4953 61.7416 54.101 61.6876C54.5106 61.707 54.9026 61.5198 55.1447 61.1892L55.8615 61.6074C55.4645 62.1861 54.7969 62.5195 54.0952 62.4895C53.3136 62.5401 52.5676 62.1564 52.1548 61.4915C51.742 60.8266 51.7295 59.9886 52.1223 59.3116C52.5151 58.6347 53.2493 58.2291 54.0322 58.2564ZM46.772 58.2564C47.3247 58.2589 47.8525 58.4865 48.2335 58.8865C48.6144 59.2865 48.8156 59.8243 48.7906 60.3758C48.7901 60.4986 48.7805 60.6211 48.762 60.7424H45.5505C45.6832 61.3356 46.2346 61.7395 46.8409 61.6876C47.2504 61.707 47.6425 61.5198 47.8846 61.1892L48.6014 61.6074C48.2044 62.1861 47.5368 62.5195 46.8351 62.4895C46.0535 62.5401 45.3075 62.1564 44.8947 61.4915C44.4819 60.8266 44.4694 59.9886 44.8622 59.3116C45.255 58.6347 45.9892 58.2291 46.772 58.2564ZM51.6695 58.3251V59.2359C51.3432 59.1789 51.009 59.2774 50.766 59.5022C50.523 59.727 50.399 60.0522 50.4308 60.3815V62.4093H49.5591V58.3996H50.4308L50.4306 59.075L50.4716 58.992C50.704 58.557 51.1712 58.2936 51.6695 58.3251ZM39.38 58.3652L40.1599 61.1434L41.0087 58.3652H41.8402L42.6775 61.1434L43.4631 58.3652H44.3864L43.119 62.3864H42.2646L41.4273 59.677L40.5786 62.3864H39.7241L38.4625 58.3652H39.38ZM31.8274 56.7556C32.324 56.743 32.8042 56.9334 33.1571 57.2826C33.5099 57.6318 33.7049 58.1097 33.6969 58.6058C33.7033 59.1014 33.5078 59.5784 33.1553 59.9272C32.8028 60.2761 32.3235 60.4669 31.8274 60.456H30.6805V62.3864H29.7457V56.7556H31.8274ZM66.0178 59.1214C65.317 59.1277 64.7531 59.6986 64.7561 60.3987C64.7593 61.0987 65.3283 61.6646 66.0291 61.6647C66.3722 61.6728 66.7035 61.539 66.9445 61.295C67.1855 61.051 67.315 60.7184 67.3022 60.3758C67.2928 59.6758 66.7187 59.1151 66.0178 59.1214ZM58.7004 59.1214C57.9995 59.1277 57.4356 59.6986 57.4387 60.3987C57.4418 61.0987 58.0108 61.6646 58.7117 61.6647C59.0548 61.6728 59.386 61.539 59.627 61.295C59.8681 61.051 59.9975 60.7184 59.9848 60.3758C59.9753 59.6758 59.4012 59.1151 58.7004 59.1214ZM36.0578 59.1271C35.3625 59.1313 34.8017 59.6966 34.8038 60.3911C34.8059 61.0855 35.3701 61.6474 36.0654 61.6475C36.4039 61.6539 36.7303 61.5216 36.9686 61.2813C37.207 61.0411 37.3365 60.7139 37.327 60.3758C37.3207 59.6814 36.7531 59.1229 36.0578 59.1271ZM45.5505 60.0378H47.9132C47.8353 59.4662 47.3439 59.0416 46.7663 59.0469C46.1628 59.0053 45.6308 59.439 45.5505 60.0378ZM52.8107 60.0378H55.1734C55.0954 59.4662 54.604 59.0416 54.0264 59.0469C53.4275 59.0192 52.9036 59.4462 52.8107 60.0378ZM31.8274 57.6206H30.6805V59.5853H31.8274C32.085 59.5889 32.3325 59.4855 32.5108 59.2998C32.6891 59.1141 32.7823 58.8627 32.7679 58.6058C32.7839 58.3479 32.6915 58.0951 32.513 57.9081C32.3345 57.7211 32.0861 57.6169 31.8274 57.6206ZM43.4516 28.5843C47.9821 28.5843 49.4387 29.8961 49.4387 34.914L49.4157 34.9255C49.4157 39.9663 47.9878 41.2265 43.4287 41.2265C38.8696 41.2265 37.4474 39.9434 37.4474 34.9255C37.4474 29.9076 38.9212 28.5843 43.4516 28.5843ZM89.0195 23.4633V38.7748H88.9966C88.9966 40.2928 88.1765 41.1119 86.6568 41.1119H82.6884C78.7143 41.1119 77.8254 38.6602 77.8254 34.9255C77.8254 31.1907 78.7143 28.739 82.6884 28.739H85.3723V24.7579L89.0195 23.4633ZM55.1447 28.7276V35.7045C55.1447 37.5031 55.6551 38.4139 57.4386 38.4139H57.9776C58.5511 38.4139 58.792 38.1791 58.792 37.5948V28.7276H62.4335V38.7748C62.4335 40.4073 61.6192 41.1119 60.0995 41.1119H56.3604C53.4358 41.1119 51.4974 39.8288 51.4974 36.6726V28.7276H55.1447ZM33.393 23.4633V28.7276H35.9163V31.4083H33.393V35.6587C33.393 37.5261 33.6511 38.4139 35.6353 38.4139H35.9163V41.1004L34.0926 41.1119C31.4088 41.1119 29.7228 40.035 29.7228 36.9991V31.4083H28.1113V28.7276H29.7457V24.7579L33.393 23.4633ZM70.118 28.739C73.4613 28.739 75.7494 29.6498 75.7494 33.1955V41.1004H72.1079V34.1178C72.1079 32.342 71.6147 31.4083 69.814 31.4083H69.3495C68.7761 31.4083 68.5295 31.6432 68.5295 32.2275V41.1004H64.8994V31.0589L64.9109 31.0704C64.9109 29.4378 65.7309 28.739 67.2506 28.739H70.118ZM10.632 24.5689C10.632 24.5689 10.7066 24.8954 11.2456 26.6024L15.8334 41.1004H11.4177L10.4141 37.5031H5.40196L4.39839 41.1004H-0.00012207L4.58763 26.6024H4.5819C4.92025 25.5369 5.24139 24.5689 5.24139 24.5689H10.632ZM93.6646 37.3141C94.7098 37.3141 95.5571 38.1604 95.5571 39.2044C95.5571 40.2484 94.7098 41.0947 93.6646 41.0947C92.6195 41.0947 91.7722 40.2484 91.7722 39.2044C91.7722 38.1604 92.6195 37.3141 93.6646 37.3141ZM26.0927 28.7276V31.4083H21.3215C20.7824 31.4083 20.295 31.4083 20.295 31.9812C20.295 32.6857 20.6907 32.8919 21.5107 33.2643L23.2311 34.0605C25.3587 35.04 26.5515 35.5326 26.5515 38.0072C26.5515 40.1037 25.6168 41.089 23.3974 41.089H16.9746V38.4139H21.9752C22.325 38.4139 22.7494 38.3223 22.7494 37.7838C22.7494 37.0334 21.8376 36.6382 20.9946 36.2659L19.6412 35.6587C17.4448 34.6791 16.8369 33.9803 16.8369 31.9239C16.8369 29.6326 17.9323 28.7276 20.2778 28.7276H26.0927ZM93.6646 37.7552C92.8633 37.7552 92.2137 38.404 92.2137 39.2044C92.2137 40.0048 92.8633 40.6536 93.6646 40.6536C94.4659 40.6536 95.1155 40.0048 95.1155 39.2044C95.1155 38.404 94.4659 37.7552 93.6646 37.7552ZM93.7965 38.202C94.1035 38.1898 94.3753 38.3982 94.4429 38.6975C94.5104 38.9968 94.3543 39.3016 94.0718 39.4221L94.5076 40.161H94.089L93.6933 39.4794V39.4736H93.4008V40.1553H93.0109V38.202H93.7965ZM93.7965 38.5571H93.4008V39.1357H93.7965C93.9495 39.1264 94.0669 38.9965 94.0603 38.8435C94.0634 38.7706 94.0374 38.6994 93.9879 38.6457C93.9384 38.592 93.8696 38.5601 93.7965 38.5571ZM43.4287 31.2823C41.4388 31.2823 41.2151 32.4738 41.2151 34.914C41.2151 37.3542 41.4732 38.5514 43.4574 38.5514L43.4287 38.5629C45.4186 38.5629 45.6767 37.3771 45.6767 34.9255C45.6767 32.4738 45.4186 31.2823 43.4287 31.2823ZM85.3493 31.4083H83.692C81.7581 31.4083 81.5763 32.9947 81.5651 34.7042L81.5644 34.914C81.5644 36.8272 81.6791 38.4139 83.7379 38.4139H84.4146C85.1199 38.4139 85.3493 38.1791 85.3493 37.4802V31.4083ZM7.92522 27.8912L7.57541 29.0369L6.01782 34.4671L9.81767 34.4672L8.2521 29.0369C8.16035 28.7333 7.92522 27.8912 7.92522 27.8912ZM92.7645 21.262C92.8174 21.1435 92.9486 21.0811 93.074 21.1148L111.075 26.0296L105.88 29.8388L92.8618 21.5902C92.7529 21.5196 92.7117 21.3804 92.7645 21.262ZM75.738 20.9716L80.3257 22.5354H80.3429C80.4399 22.5668 80.5055 22.657 80.5055 22.7588C80.5055 22.8606 80.4399 22.9508 80.3429 22.9822L74.0806 24.861L75.738 20.9716ZM94.5478 9.38917L104.411 11.0504L93.246 16.452C93.1307 16.5057 92.9956 16.4948 92.8904 16.4234L92.8478 16.388C92.756 16.2989 92.7182 16.1657 92.7528 16.0396L94.5478 9.38917ZM81.2949 8.32373C82.2048 10.7028 83.1128 13.08 84.0189 15.4553H83.9959C84.035 15.5495 84.007 15.6582 83.9273 15.7219C83.8476 15.7856 83.7353 15.789 83.6519 15.7303L75.1817 10.277L81.2949 8.32373Z" fill="#493291"/>
<path d="M63.4486 45.373V48.2829C63.8853 47.6793 64.5962 47.335 65.3411 47.3664C66.079 47.3826 66.7791 47.6959 67.2823 48.2352C67.7855 48.7745 68.0492 49.4941 68.0135 50.2305H68.002C68.0236 50.9593 67.7539 51.6666 67.2525 52.1965C66.7511 52.7263 66.0593 53.0351 65.3296 53.0545C64.5881 53.0852 63.8809 52.7406 63.4486 52.138V52.9113H62.3017V45.373H63.4486ZM45.2734 48.2121C46.0872 49.0233 46.3308 50.2447 45.8903 51.3055C45.4498 52.3662 44.4122 53.0568 43.2625 53.0545C42.5098 53.0622 41.7856 52.7674 41.2528 52.2363C40.72 51.7051 40.4234 50.9824 40.4296 50.2305C40.4249 49.0821 41.1142 48.0443 42.1753 47.6022C43.2364 47.16 44.4597 47.4009 45.2734 48.2121ZM87.8268 45.373L88.9852 45.4017V52.9113H87.8383V52.1094C87.406 52.712 86.6989 53.0565 85.9573 53.0259C84.3927 53.029 83.1218 51.7647 83.1186 50.2019C83.1155 48.6391 84.3812 47.3696 85.9458 47.3664C86.6846 47.3363 87.3899 47.6756 87.8268 48.2715V45.373ZM51.9448 48.2829V47.5211L53.0918 47.5497V52.9113H51.9448V52.1094C51.5125 52.712 50.8054 53.0565 50.0639 53.0259C48.5723 52.9309 47.4111 51.6948 47.4111 50.2019C47.4111 48.7089 48.5723 47.4728 50.0639 47.3779C50.8027 47.3477 51.5079 47.6871 51.9448 48.2829ZM73.8571 48.2829V47.5211L75.004 47.5497V52.9113H73.8571V52.1094C73.4273 52.7119 72.7219 53.0567 71.9819 53.0259C70.4903 52.9309 69.3291 51.6948 69.3291 50.2019C69.3291 48.7089 70.4903 47.4728 71.9819 47.3779C72.7189 47.3487 73.422 47.688 73.8571 48.2829ZM59.2508 45.373L60.3978 45.4017V52.9113H59.2508V52.1094C58.8178 52.7111 58.1112 53.0555 57.3699 53.0259C55.8783 52.9309 54.7171 51.6948 54.7171 50.2019C54.7171 48.7089 55.8783 47.4728 57.3699 47.3779C58.1082 47.3498 58.8126 47.6887 59.2508 48.2829V45.373ZM34.2736 45.9489C34.6882 46.3404 34.9269 46.8825 34.9357 47.4523C34.9514 48.0586 34.6659 48.6333 34.173 48.9875C34.8341 49.3192 35.2449 50.0015 35.2282 50.7403C35.2225 51.3268 34.9789 51.886 34.553 52.2898C34.1271 52.6936 33.5554 52.9075 32.9687 52.8827H29.7458V45.373H32.7336C33.3037 45.3498 33.859 45.5574 34.2736 45.9489ZM39.5751 47.4237V48.6782C39.1452 48.6046 38.7054 48.733 38.3828 49.0262C38.0602 49.3193 37.8908 49.7446 37.9235 50.179V52.8827H36.7766V47.5211H37.9235V48.4204C38.2105 47.7752 38.8699 47.3773 39.5751 47.4237ZM79.7466 47.3779C80.9509 47.3779 81.8111 48.197 81.8111 49.589H81.7997V52.8827H80.6527V49.7093C80.6832 49.3778 80.5678 49.0494 80.3366 48.8097C80.1054 48.5699 79.7812 48.4425 79.4484 48.4605C78.6857 48.4605 78.0836 48.913 78.0836 50.0071V52.8712H76.9366V47.5211H78.0836V48.2085C78.4478 47.6527 79.083 47.3354 79.7466 47.3779ZM86.1179 48.5121C85.1677 48.5121 84.3975 49.2814 84.3975 50.2305C84.3975 51.1796 85.1677 51.949 86.1179 51.949C86.5789 51.9652 87.026 51.7893 87.3522 51.4635C87.6784 51.1376 87.8545 50.6911 87.8383 50.2305C87.8383 49.2814 87.068 48.5121 86.1179 48.5121ZM50.2244 48.5121C49.2743 48.5121 48.504 49.2814 48.504 50.2305C48.504 51.1796 49.2743 51.949 50.2244 51.949C50.6855 51.9652 51.1326 51.7893 51.4588 51.4635C51.785 51.1376 51.961 50.6911 51.9448 50.2305C51.9448 49.2814 51.1746 48.5121 50.2244 48.5121ZM65.1346 48.5121C64.1845 48.5121 63.4142 49.2814 63.4142 50.2305C63.4142 51.1796 64.1845 51.949 65.1346 51.949C65.5957 51.9652 66.0428 51.7893 66.369 51.4635C66.6952 51.1376 66.8712 50.6911 66.855 50.2305C66.855 49.2814 66.0848 48.5121 65.1346 48.5121ZM57.5304 48.5121C56.5803 48.5121 55.81 49.2814 55.81 50.2305C55.81 51.1796 56.5803 51.949 57.5304 51.949C57.9915 51.9652 58.4386 51.7893 58.7648 51.4635C59.091 51.1376 59.267 50.6911 59.2508 50.2305C59.2508 49.2814 58.4806 48.5121 57.5304 48.5121ZM43.2328 48.604C42.3141 48.6206 41.5805 49.3735 41.5887 50.2912C41.5968 51.2089 42.3438 51.9486 43.2625 51.949C43.7167 51.9557 44.1536 51.7752 44.4704 51.4501C44.7872 51.125 44.956 50.6838 44.937 50.2305C44.9119 49.3131 44.1514 48.5873 43.2328 48.604ZM70.9039 49.0325C70.4156 49.5335 70.28 50.2801 70.5608 50.9205C70.8416 51.561 71.4829 51.9676 72.1826 51.949C72.6392 51.9588 73.0797 51.7799 73.3999 51.4546C73.7202 51.1293 73.8918 50.6864 73.8743 50.2305H73.8571C73.8569 49.5313 73.4326 48.902 72.784 48.639C72.1355 48.3759 71.3921 48.5315 70.9039 49.0325ZM32.9687 49.6233H30.9845V51.7256H32.9687C33.2455 51.7257 33.5105 51.6136 33.703 51.4149C33.8954 51.2162 33.9989 50.9479 33.9895 50.6716C33.9989 50.3958 33.8953 50.1281 33.7027 49.9303C33.51 49.7325 33.245 49.6216 32.9687 49.6233ZM30.9845 46.5301V48.5121H32.7049C33.2221 48.4727 33.6217 48.042 33.6217 47.5239C33.6217 47.0059 33.2221 46.5752 32.7049 46.5358L30.9845 46.5301ZM92.8918 25.6849C92.9851 25.6482 93.0913 25.6761 93.1544 25.754L97.6102 30.8005L93.0225 34.0083L92.7472 25.9143C92.7401 25.8145 92.7986 25.7216 92.8918 25.6849ZM112.991 13.1634C113.377 13.9367 113.762 14.8289 114.148 15.7381L114.534 16.6491C114.92 17.5583 115.306 18.4505 115.692 19.2238V19.2295L96.0446 18.7255C95.9315 18.7188 95.8393 18.6325 95.8252 18.5201C95.8112 18.4078 95.8793 18.3015 95.9873 18.2672C101.659 16.7836 107.325 14.647 112.991 13.1634ZM84.3 0L92.2311 4.98926C91.0382 9.09637 89.8512 14.5668 88.6583 18.8343C88.6301 18.9359 88.5374 19.0062 88.4318 19.0062C88.3262 19.0062 88.2336 18.9359 88.2053 18.8343C86.9035 12.9514 85.6018 5.72819 84.3 0ZM70.2672 9.13647C73.3926 11.7084 77.9287 14.7673 81.2835 17.4366C81.3654 17.5071 81.3886 17.6244 81.3397 17.7207C81.2908 17.817 81.1824 17.8676 81.0771 17.8433C77.3839 16.8695 72.5553 15.4948 69.1145 14.5782H69.1203L70.2672 9.13647Z" fill="#3BB54A"/>
</svg>
