<svg width="102" height="40" viewBox="0 0 102 40" fill="none" xmlns="http://www.w3.org/2000/svg">
<g clip-path="url(#clip0_1008_4877)">
<path d="M94.2773 28.0126C94.0047 28.0126 93.823 27.8277 93.823 27.5748V14.6825H89.2793C89.0067 14.6825 88.825 14.5074 88.825 14.2447V12.4641C88.825 12.2014 89.0067 12.0262 89.2793 12.0262H101.376C101.648 12.0262 101.83 12.2111 101.83 12.4641V14.2447C101.83 14.5074 101.648 14.6825 101.376 14.6825H96.8319V27.5748C96.8319 27.8375 96.64 28.0126 96.3775 28.0126H94.2773ZM59.4529 21.5811L57.07 14.9842L54.6669 21.5811H59.4529ZM64.7437 27.4969C64.8447 27.7596 64.6831 28.0223 64.3903 28.0223H62.2296C61.9165 28.0223 61.7348 27.8861 61.6237 27.604L60.402 24.1985H53.6976L52.4759 27.5942C52.3749 27.8764 52.1831 28.0126 51.8701 28.0126H49.8406C49.568 28.0126 49.3862 27.7499 49.4872 27.4872L55.1112 12.4154C55.2122 12.1333 55.404 12.0165 55.717 12.0165H58.4937C58.8067 12.0165 59.0086 12.1333 59.1197 12.4154L64.7437 27.4969ZM80.8686 25.8526C82.1913 25.8526 83.0899 25.2298 83.8169 24.1693L80.4546 20.6859C79.1622 21.3865 78.3342 22.087 78.3342 23.4882C78.3342 24.8796 79.4954 25.8526 80.8686 25.8526ZM81.7975 14.1376C80.7171 14.1376 80.0911 14.7993 80.0911 15.675C80.0911 16.3561 80.4647 16.9496 81.3128 17.835C82.787 17.0177 83.413 16.5118 83.413 15.6361C83.413 14.8187 82.8779 14.1376 81.7975 14.1376ZM90.9958 27.458C91.2684 27.7402 91.0968 28.0223 90.7636 28.0223H88.1283C87.7749 28.0223 87.5931 27.9445 87.3609 27.6818L85.7858 25.9985C84.7256 27.3607 83.2514 28.3726 80.808 28.3726C77.7789 28.3726 75.3859 26.6115 75.3859 23.5952C75.3859 21.2795 76.6783 20.034 78.627 18.9929C77.6678 17.9323 77.2337 16.8134 77.2337 15.8307C77.2337 13.3495 79.041 11.6565 81.7571 11.6565C84.5338 11.6565 86.2402 13.2328 86.2402 15.5777C86.2402 17.5723 84.7458 18.6913 83.1707 19.5378L85.493 21.9606L86.7955 19.7616C86.957 19.4989 87.1489 19.4016 87.4821 19.4016H89.4914C89.8246 19.4016 90.0063 19.6254 89.8044 19.9659L87.4821 23.7995L90.9958 27.458ZM70.2768 28.0126C70.5495 28.0126 70.7312 27.8277 70.7312 27.5748V14.6825H75.2748C75.5475 14.6825 75.7292 14.5074 75.7292 14.2447V12.4641C75.7292 12.2014 75.5475 12.0262 75.2748 12.0262H63.1787C62.906 12.0262 62.7243 12.2111 62.7243 12.4641V14.2447C62.7243 14.5074 62.906 14.6825 63.1787 14.6825H67.7223V27.5748C67.7223 27.8375 67.9141 28.0126 68.1767 28.0126H70.2768Z" fill="#161616"/>
<path d="M8.85699 35.7966C12.3808 38.4237 16.7932 40 21.5893 40C26.8296 40 31.6156 38.1221 35.2707 35.0474C35.3111 35.0085 35.2909 34.9891 35.2505 35.0085C33.6148 36.0594 28.95 38.3654 21.5994 38.3654C15.208 38.3654 11.1793 36.9934 8.89738 35.7675C8.84689 35.7383 8.8267 35.7675 8.85699 35.7966ZM23.0028 36.8183C28.1119 36.8183 33.7258 35.4756 37.0881 32.8193C38.0069 32.0992 38.8854 31.136 39.6628 29.8419C40.1172 29.0927 40.5514 28.2072 40.9149 27.3413C40.9351 27.3024 40.9048 27.2829 40.8745 27.3218C37.7545 31.749 28.7076 34.5123 19.378 34.5123C12.7746 34.5123 5.67644 32.4787 2.89977 28.5964C2.86948 28.5575 2.84929 28.577 2.85939 28.6159C5.43411 33.9188 13.2896 36.8183 23.0028 36.8183ZM17.4192 28.0126C6.79721 28.0126 1.77901 23.245 0.870283 19.9854C0.860186 19.9465 0.829895 19.9562 0.829895 19.9951C0.829895 21.0946 0.940962 22.5055 1.1429 23.4396C1.23377 23.8969 1.61746 24.6169 2.18289 25.1812C4.75762 27.7694 11.1692 31.389 22.2759 31.389C37.4112 31.389 40.8745 26.5337 41.5813 24.9282C42.0861 23.7898 42.3486 21.7173 42.3486 19.9854C42.3486 19.567 42.3385 19.2265 42.3184 18.9054C42.3184 18.8567 42.2881 18.847 42.278 18.8956C41.5207 22.8168 28.5966 28.0126 17.4192 28.0126ZM2.8291 11.423C2.22328 12.5906 1.54678 14.5561 1.34484 15.568C1.25397 16.0058 1.29436 16.2102 1.45591 16.541C2.72813 19.1486 9.16999 23.3131 24.1943 23.3131C33.3623 23.3131 40.4807 21.1433 41.6318 17.1832C41.8438 16.4534 41.8539 15.6847 41.5813 14.6436C41.2784 13.4858 40.7028 12.1333 40.2182 11.1798C40.198 11.1506 40.1778 11.1506 40.1778 11.1895C40.3595 16.3853 25.3251 19.7324 17.7423 19.7324C9.52339 19.7324 2.67764 16.5799 2.67764 12.5906C2.67764 12.2111 2.75842 11.8219 2.85939 11.423C2.87958 11.3938 2.84929 11.3841 2.8291 11.423ZM35.301 5.04014C35.3918 5.17636 35.4322 5.31258 35.4322 5.49745C35.4322 7.71588 28.3744 11.6468 17.1466 11.6468C8.89738 11.6468 7.34244 8.69861 7.34244 6.82072C7.34244 6.14935 7.60496 5.46826 8.20068 4.7677C8.23098 4.72878 8.20068 4.70932 8.17039 4.73851C7.10011 5.61421 6.11061 6.59694 5.25237 7.66723C4.83839 8.17319 4.58597 8.62077 4.58597 8.88348C4.58597 12.7755 14.7031 15.5874 24.164 15.5874C34.2408 15.5874 38.744 12.4155 38.744 9.63269C38.744 8.64023 38.3401 8.05643 37.3103 6.92775C36.6439 6.19801 36.0077 5.59475 35.3413 5.01095C35.301 4.99149 35.2808 5.01095 35.301 5.04014ZM32.2113 2.8217C29.1014 1.02165 25.4867 0 21.5893 0C17.6716 0 13.9459 1.06057 10.8259 2.89954C9.88688 3.45415 9.36184 3.90173 9.36184 4.4758C9.36184 6.15909 13.4511 7.97859 20.7108 7.97859C27.8898 7.97859 33.4633 5.99368 33.4633 4.07687C33.4633 3.61956 33.0493 3.29847 32.2113 2.8217Z" fill="#009FDB"/>
</g>
<defs>
<clipPath id="clip0_1008_4877">
<rect width="101" height="40" fill="white" transform="translate(0.829895)"/>
</clipPath>
</defs>
</svg>
