<svg width="158" height="32" viewBox="0 0 158 32" fill="none" xmlns="http://www.w3.org/2000/svg">
<path d="M3.4516 25.249C4.49486 26.754 5.78278 28.0663 7.25979 29.1294L12.4481 19.9465L3.43604 25.2331M7.25979 2.86536C5.78152 3.92687 4.49336 5.23945 3.4516 6.74575L12.4636 12.0324L7.27535 2.8495M22.9491 1.41682C21.313 0.642759 19.5576 0.163397 17.7608 0V10.5997L22.9491 1.41682ZM9.71903 30.5779C11.3554 31.3523 13.1105 31.8334 14.9073 32V21.3897L9.71903 30.5726M29.2269 6.74575C28.1851 5.23952 26.8969 3.92695 25.4187 2.86536L20.2305 12.0482L29.2425 6.76161M25.4187 29.1294C26.8961 28.0667 28.1841 26.7543 29.2269 25.249L20.2149 19.9623L25.4032 29.1452" fill="#8DC641"/>
<path d="M31.8185 14.5512C31.6553 12.7206 31.1838 10.932 30.4246 9.26371L21.3898 14.5512H31.8185ZM0.339844 17.4488C0.501433 19.2797 0.973026 21.0686 1.73381 22.7363L10.7738 17.4488H0.339844ZM1.73381 9.24785C0.971688 10.9207 0.500075 12.7149 0.339844 14.5512H10.7738L1.73381 9.26371V9.24785ZM21.3898 17.4488L30.4246 22.7363C31.1858 21.0687 31.6574 19.2798 31.8185 17.4488H21.3898ZM14.6592 0C12.8577 0.162367 11.0977 0.641856 9.45784 1.41705L14.6592 10.6015V0ZM17.5044 32C19.3057 31.8335 21.0653 31.3524 22.7057 30.5777L17.5044 21.3933V32ZM28.0163 1.92994C28.0192 0.862526 28.8717 -0.000965435 29.9218 6.40489e-06C30.9718 0.000981528 31.8228 0.866052 31.8237 1.93347C31.8247 3.00089 30.9752 3.86754 29.9252 3.87047C29.4185 3.87187 28.9322 3.66787 28.5739 3.30365C28.2156 2.93942 28.0149 2.44503 28.0163 1.92994ZM31.5168 1.92994C31.4685 1.06795 30.7667 0.394146 29.9174 0.394146C29.0681 0.394146 28.3664 1.06795 28.318 1.92994C28.318 2.8279 29.0341 3.55585 29.9174 3.55585C30.8008 3.55585 31.5168 2.8279 31.5168 1.92994ZM29.4675 3.02445H29.2074V0.814276H30.1437C30.7106 0.814276 30.9031 1.03106 30.9031 1.42763C30.9031 1.82419 30.6118 2.00925 30.2321 2.04098L30.8771 3.02445H30.565L29.9512 2.04098H29.4675V3.02445ZM29.8524 1.78189C30.1593 1.78189 30.5806 1.83477 30.5806 1.41705C30.5806 1.11038 30.3257 1.06808 30.0605 1.06808H29.4675V1.78189H29.8524Z" fill="#028644"/>
<path d="M50.082 12.2835C49.9772 10.9015 48.4847 9.9853 46.9869 9.9853C43.3838 9.9853 42.7134 13.2463 42.7134 15.7878C42.7134 18.7692 43.6247 21.5799 46.8036 21.5799C48.3747 21.5799 49.7782 20.819 50.0191 19.2817H52.1454C51.9464 21.6989 49.4745 23.2983 46.6255 23.2983C42.3154 23.2983 40.5977 19.8251 40.5977 15.7826C40.5977 12.2421 42.1688 8.12188 47.0654 8.26164C49.8777 8.34446 51.983 9.70061 52.203 12.2783H50.082V12.2835ZM55.6961 18.3396C55.5547 20.0995 56.2827 21.9163 58.2466 21.9163C59.7444 21.9163 60.4933 21.3366 60.7185 19.8769H62.74C62.4362 22.1544 60.6451 23.2932 58.2309 23.2932C54.9734 23.2932 53.6798 21.0157 53.6798 18.0601C53.6798 15.1045 55.1724 12.6614 58.3932 12.6614C61.4255 12.7183 62.8604 14.6179 62.8604 17.3975V18.3396H55.6961ZM60.8337 17.0249C60.8703 15.3426 60.1005 14.0434 58.2413 14.0434C56.644 14.0434 55.6909 15.384 55.6909 17.0249H60.8337ZM66.7097 14.442H66.7516C67.3749 13.3425 68.5506 12.6616 69.8257 12.6614C70.5327 12.6614 73.6697 12.8425 73.6697 16.0621V22.9981H71.7477V16.6832C71.7477 15.0217 71.0407 14.1262 69.4172 14.1262C68.7227 14.1195 68.0539 14.3857 67.5581 14.8664C67.2753 15.1459 66.7463 15.5859 66.7463 17.5425V22.9981H64.8243V12.9616H66.7097V14.442ZM76.7072 12.9616V10.829L78.6292 10.2286V12.9616H80.9754V14.3384H78.6292V20.7827C78.6292 21.497 79.1948 21.818 79.8861 21.818C80.2248 21.8165 80.5622 21.7765 80.8916 21.6989V23.1586C80.4517 23.1586 80.0223 23.2776 79.5824 23.2776C79.1491 23.2836 78.7161 23.2507 78.2888 23.1793C77.8413 23.1057 77.4378 22.8694 77.1576 22.5167C76.812 22.0354 76.7125 21.9991 76.7125 20.6585V14.3384H74.9685V12.9616H76.7072ZM89.4228 12.9616H91.3396V22.9981H89.4595V21.5229H89.4176C88.6713 22.6956 87.3397 23.3755 85.9402 23.2983C83.8139 23.2983 82.5989 21.7041 82.5989 19.675V12.9461H84.5209V18.8986C84.5209 20.6378 84.9242 21.9163 86.7676 21.9163C87.7492 21.937 88.6458 21.3681 89.0353 20.4773C89.2905 19.716 89.4195 18.919 89.4176 18.117V12.9409L89.4228 12.9616ZM95.833 22.9981H93.911V12.9616H95.833V14.8975H95.8749C96.1577 13.5206 97.446 12.827 98.8495 12.827H99.5146V14.6231C99.2468 14.5427 98.9667 14.5094 98.6872 14.5248C96.2572 14.6024 95.833 15.8809 95.833 18.0031V22.9981ZM105.197 26.8388H103.233L104.767 22.9619L100.546 12.9668H102.683L105.862 20.8811L109.104 12.9668H111.162L105.197 26.8388ZM112.602 22.9981V8.56186H115.739V20.6016H122.071V22.9981H112.602ZM123.867 8.56186H127.104V11.1499H123.867V8.56186ZM123.966 12.9616H126.999V22.9981H123.966V12.9616ZM132.922 14.121L132.964 14.1831C133.656 13.1515 134.857 12.5696 136.106 12.6614C137.117 12.6614 139.081 13.3964 139.442 14.8612C139.573 15.3846 139.642 15.9214 139.646 16.4607V22.9981H136.609V16.9627C136.609 15.8809 136.284 14.6645 134.786 14.6645C133.833 14.6645 133.006 15.5031 132.964 16.9627V22.9981H129.932V12.9616H132.943V14.121H132.922ZM145.59 17.0249L145.627 17.0611L148.623 12.8477H152.001L148.497 17.2423L152.22 22.9981H148.68L145.627 17.5011L145.59 17.5425V22.9981H142.558V8.56186H145.59V17.0249ZM153.409 14.7318C153.412 13.6869 154.271 12.8416 155.328 12.8425C156.385 12.8435 157.242 13.6903 157.243 14.7353C157.244 15.7802 156.389 16.6286 155.331 16.6315C154.821 16.6328 154.331 16.4331 153.971 16.0766C153.61 15.72 153.408 15.2361 153.409 14.7318ZM156.934 14.7318C156.928 13.8556 156.206 13.1493 155.319 13.1531C154.433 13.1569 153.716 13.8693 153.718 14.7456C153.72 15.6219 154.439 16.3312 155.326 16.3312C155.758 16.3428 156.176 16.1779 156.481 15.8752C156.787 15.5726 156.952 15.159 156.939 14.7318H156.934ZM154.891 15.8033H154.624V13.6397H155.567C156.138 13.6397 156.332 13.8519 156.332 14.2401C156.332 14.6283 156.033 14.8146 155.656 14.8457L156.305 15.8085H155.991L155.373 14.8457H154.902L154.891 15.8033ZM155.279 14.5869C155.588 14.5869 156.012 14.6386 156.012 14.2297C156.012 13.9295 155.755 13.8881 155.488 13.8881H154.886V14.6128L155.279 14.5869Z" fill="#161616"/>
</svg>
