<svg width="96" height="32" viewBox="0 0 96 32" fill="none" xmlns="http://www.w3.org/2000/svg">
<g clip-path="url(#clip0_1008_4776)">
<path d="M86.5879 15.9931L95.1592 6.23561C96.3853 4.83664 96.2568 2.69704 94.8672 1.46265C93.4776 0.228265 91.3523 0.357582 90.1262 1.75655L82.1038 10.891L74.0931 1.76831C72.867 0.369338 70.7417 0.240021 69.3521 1.47441C67.9625 2.70879 67.834 4.8484 69.0601 6.24737L77.6314 16.0049L69.0601 25.7624C67.834 27.1614 67.9625 29.301 69.3521 30.5354C70.7417 31.7698 72.867 31.6405 74.0931 30.2415L82.1155 21.107L90.1379 30.2415C91.364 31.6405 93.4893 31.7698 94.8789 30.5354C96.2685 29.301 96.397 27.1614 95.1708 25.7624L86.5879 15.9931Z" fill="#00D258"/>
<path d="M46.7797 32.0049C38.0216 32.0049 30.8867 24.8337 30.8867 16.0049C30.8867 7.17608 38.0216 0.00488281 46.7797 0.00488281C55.5377 0.00488281 62.6726 7.17608 62.6726 16.0049C62.6726 24.8337 55.5494 32.0049 46.7797 32.0049ZM46.7797 6.75286C41.7117 6.75286 37.6012 10.9028 37.6012 15.9931C37.6012 21.0835 41.7234 25.2334 46.7797 25.2334C51.836 25.2334 55.9581 21.0835 55.9581 15.9931C55.9581 10.9028 51.8477 6.75286 46.7797 6.75286Z" fill="url(#paint0_linear_1008_4776)"/>
<path d="M15.8929 32.0057C7.12316 32.0057 -6.10352e-05 24.8228 -6.10352e-05 16.0057C-6.10352e-05 7.18869 7.12316 0.0057373 15.8929 0.0057373C18.7422 0.0057373 21.5331 0.769881 23.9737 2.22763C25.5735 3.17987 26.099 5.24894 25.1531 6.85952C24.2072 8.4701 22.152 8.99912 20.5522 8.04688C19.1509 7.2122 17.5277 6.76547 15.8929 6.76547C10.8249 6.76547 6.71445 10.9154 6.71445 16.0057C6.71445 21.0961 10.8366 25.246 15.8929 25.246C17.5394 25.246 19.1509 24.7993 20.5522 23.9646C22.152 23.0123 24.2072 23.5414 25.1531 25.152C26.099 26.7625 25.5735 28.8316 23.9737 29.7838C21.5331 31.2298 18.7422 32.0057 15.8929 32.0057Z" fill="#00AAF4"/>
</g>
<defs>
<linearGradient id="paint0_linear_1008_4776" x1="35.5502" y1="4.69189" x2="58.1673" y2="27.1571" gradientUnits="userSpaceOnUse">
<stop offset="0.12" stop-color="#00AAF4"/>
<stop offset="0.88" stop-color="#00D258"/>
</linearGradient>
<clipPath id="clip0_1008_4776">
<rect width="96" height="32" fill="white"/>
</clipPath>
</defs>
</svg>
