<svg width="117" height="23" viewBox="0 0 117 23" fill="none" xmlns="http://www.w3.org/2000/svg">
<path d="M64.4322 7.64481C65.4657 7.67289 67.0398 7.72083 68.717 7.79004C68.6538 8.03154 68.6228 9.04045 68.6078 10.0834L68.6045 10.334C68.598 10.8768 68.5955 11.4129 68.5947 11.8393L68.5947 12.5327L68.5948 12.5579L68.595 12.6583C68.5951 12.6687 68.5951 12.678 68.5951 12.6859L68.5953 12.7225C68.5958 13.51 68.5238 16.0828 69.2414 17.2161C69.9931 18.403 71.0852 18.8747 72.315 18.8747C74.1586 18.8747 75.4159 17.7827 75.8649 15.9258L75.8924 15.8063H80.2349C79.7062 19.5745 76.8252 22.6436 72.3074 22.6436C69.6664 22.6436 67.329 21.5015 65.8704 19.6304C64.5431 17.9279 64.3428 15.8171 64.3219 13.4751L64.3206 13.2847H64.3195L64.3194 13.2685L64.3192 13.25L64.3189 13.1933C64.3179 13.043 64.3162 12.7179 64.3156 12.2959L64.3153 12.0807C64.3153 12.0066 64.3153 11.9302 64.3153 11.8519L64.3156 11.6117C64.3161 11.3254 64.3173 11.02 64.3195 10.7101L64.3216 10.4437C64.3328 9.19867 64.362 7.95007 64.4322 7.64481ZM44.0508 9.11668C43.5289 11.1407 42.0716 12.4591 40.445 13.0873L40.3257 13.132L45.1349 22.4633V22.4642H40.2649L36.0614 13.8299H33.0341V22.4642H28.8306V12.1729C34.4024 10.7118 40.2539 9.6948 44.0508 9.11668ZM16.3396 16.0855C16.1134 17.659 15.576 19.125 14.3148 20.3913C12.9305 21.7832 10.9747 22.4281 8.81072 22.4628L8.62474 22.4643H2.62575C6.60841 20.1612 11.2095 18.0062 16.3396 16.0855ZM24.5876 13.3418V22.464H20.3841V14.6571C21.7535 14.2019 23.1545 13.7625 24.5876 13.3418ZM103.272 0.825132L107.601 14.9241L111.927 0.825132H116.313L109.175 22.464H106.027L98.9198 0.825132H103.272ZM96.8471 0.824422V4.59184H91.2212V22.4642H87.0163V4.59184H81.3889V0.824422H96.8471ZM52.0515 8.16134V9.64635H60.554V13.4053H60.552V13.4362H52.0515V18.6506H62.0027V18.692H62.0332V22.464H47.8472V8.60557C49.2648 8.43423 50.6669 8.28615 52.0515 8.16134ZM8.34109 0.814948C10.8928 0.814948 12.9241 1.41945 14.3147 2.88148C16.435 5.11131 16.491 6.75303 16.4925 11.6457V12.061C16.4925 12.061 13.644 12.8088 12.2695 13.2025C12.2695 7.82244 12.1902 6.95157 11.3789 5.92072C10.7316 5.09878 9.73202 4.61586 8.41405 4.58353L8.27163 4.5818H5.05257V15.4931C3.81106 15.9281 2.60276 16.374 1.42782 16.8303L0.84314 17.0593V0.814948H8.34109ZM24.5876 0.825103V10.2236C23.4449 10.4538 22.3187 10.6913 21.2112 10.9372L20.3841 11.1232V0.825103H24.5876ZM37.2724 0.823543C41.4926 0.823543 44.0572 3.61162 44.2437 7.0441L44.2493 7.16696L40.0534 7.67303C40.0534 5.67962 38.8416 4.63251 37.0998 4.59297L36.9967 4.59181H33.0341V8.69509C31.9747 8.86636 30.9212 9.04416 29.8747 9.22804L28.8306 9.41391V0.823543H37.2724ZM72.3361 0.643555C76.8917 0.643555 79.6564 3.64676 80.2164 7.33589C78.6912 7.06045 77.1431 6.84145 75.6345 6.667C75.07 5.25177 73.941 4.41239 72.3285 4.41239C70.1622 4.41239 69.3774 5.88974 69.2297 6.14136C67.3577 6.04462 65.7895 6.01002 64.7376 5.99867C65.2098 4.31055 66.1784 2.92908 68.0134 1.76547C69.0863 1.08523 70.6578 0.643555 72.3361 0.643555ZM62.0027 0.8236V0.825018H62.0332V4.59158H52.0515V6.45558C51.0048 6.53004 49.9541 6.61376 48.901 6.70613L47.8472 6.80137V0.8236H62.0027Z" fill="#3379CE"/>
</svg>
