<svg width="92" height="40" viewBox="0 0 92 40" fill="none" xmlns="http://www.w3.org/2000/svg">
<path fill-rule="evenodd" clip-rule="evenodd" d="M49.8119 16.2411C49.8119 15.2349 51.2205 14.5046 53.3805 14.5046C55.8441 14.5046 58.1584 15.3816 59.5987 16.6144C59.8665 16.8431 60.2754 16.7713 60.4502 16.4646L62.2084 12.9569C62.3444 12.72 62.281 12.4205 62.0643 12.2564C59.8921 10.6185 56.9685 9.44208 53.3335 9.44208C47.3709 9.44208 44.0384 12.7867 44.0384 16.6021C44.0384 25.5108 57.5123 22.4277 57.5123 26.3446C57.5123 27.4164 56.2918 28.3241 53.7097 28.3241C51.1439 28.3241 48.112 27.3087 46.3497 25.9046C46.0869 25.6954 45.6995 25.7662 45.5227 26.0534L43.5263 29.4041C43.3862 29.6308 43.4322 29.9272 43.6367 30.0995C46.042 32.1272 49.6709 33.3241 53.4285 33.3241C59.7193 33.3241 63.2409 30.2154 63.2409 26.0236C63.2378 17.0462 49.8119 19.8195 49.8119 16.2411Z" fill="#EC1944"/>
<path fill-rule="evenodd" clip-rule="evenodd" d="M22.6463 1.05334H17.4013C17.1907 1.05334 17.019 1.22463 17.019 1.43693V12.5446C15.2618 10.6185 12.9045 9.44514 10.2519 9.44514C4.58978 9.44514 0 14.7908 0 21.3846C0 27.9785 4.58978 33.3241 10.2508 33.3241C12.9035 33.3241 15.2618 32.1508 17.018 30.2246V32.3754C17.018 32.5867 17.1887 32.759 17.4003 32.759H22.6453C22.8559 32.759 23.0276 32.5877 23.0276 32.3754V1.43591C23.0276 1.22463 22.8569 1.05334 22.6463 1.05334ZM11.5102 28.3098C8.46707 28.3098 6.00147 25.2082 6.00147 21.3815C6.00147 17.5549 8.46809 14.4533 11.5102 14.4533C14.5391 14.4533 16.9965 17.5282 17.018 21.3303V21.4318C16.9975 25.2359 14.5401 28.3098 11.5102 28.3098Z" fill="#EC1944"/>
<path fill-rule="evenodd" clip-rule="evenodd" d="M78.7244 9.44308C75.9531 9.44308 73.8218 10.6113 72.4224 12.5179V1.4359C72.4224 1.22461 72.2517 1.05231 72.0401 1.05231H66.795C66.5845 1.05231 66.4127 1.22359 66.4127 1.4359V32.3754C66.4127 32.5867 66.5834 32.759 66.795 32.759H72.0401C72.2506 32.759 72.4224 32.5877 72.4224 32.3754V19.1446C72.4265 16.1497 74.5588 14.48 77.1338 14.48C79.7118 14.48 81.7358 16.0697 81.7358 19.9733L81.7409 32.3754C81.7409 32.5867 81.9116 32.759 82.1232 32.759H87.3683C87.5789 32.759 87.7506 32.5877 87.7506 32.3754V19.6062C87.7516 12.5856 83.7353 9.44308 78.7244 9.44308Z" fill="#EC1944"/>
<path d="M29.8428 3.56308C29.8428 1.59385 31.4783 0 33.394 0C35.3566 0 36.9452 1.59385 36.9452 3.56308C36.9452 5.53231 35.3566 7.12615 33.394 7.12615C31.4783 7.12615 29.8428 5.53231 29.8428 3.56308ZM40.1917 26.9692C37.7916 28.3682 35.2176 28.7374 33.4451 28.7405C31.6725 28.7374 29.0976 28.3692 26.6984 26.9692C26.3048 26.7487 26.0953 27.1344 26.1771 27.4708C26.9918 30.8297 29.9245 33.321 33.4236 33.3415H33.4665C36.9656 33.321 39.8984 30.8308 40.7131 27.4708C40.7948 27.1333 40.5853 26.7477 40.1917 26.9692ZM38.7719 18.4862C36.8767 19.5908 34.8445 19.882 33.4451 19.8841C32.0456 19.882 30.0124 19.5908 28.1183 18.4862C27.8075 18.3118 27.6419 18.6164 27.7063 18.882C28.3493 21.5344 30.6646 23.5015 33.4277 23.5169H33.4614C36.2245 23.5005 38.5398 21.5344 39.1828 18.882C39.2482 18.6164 39.0826 18.3118 38.7719 18.4862ZM37.26 11.2564C35.9035 12.0472 34.4468 12.2564 33.4451 12.2574C32.4433 12.2554 30.9866 12.0472 29.6301 11.2564C29.4073 11.1313 29.2897 11.3497 29.3357 11.5395C29.7968 13.439 31.4548 14.8472 33.4328 14.8585H33.4573C35.4364 14.8472 37.0944 13.439 37.5544 11.5395C37.6004 11.3497 37.4818 11.1323 37.26 11.2564Z" fill="#EC1944"/>
<path d="M90.2857 31.3795V31.6021H89.8574V32.7241H89.5916V31.6021H89.1633V31.3795H90.2857ZM91.7342 32.7241L91.6852 31.9334C91.68 31.8298 91.68 31.7005 91.6749 31.558H91.6606C91.6259 31.677 91.587 31.8349 91.5472 31.958L91.3059 32.7046H91.0299L90.7887 31.9385C90.7641 31.8349 90.7243 31.677 90.6946 31.558H90.6803C90.6803 31.6821 90.6752 31.8103 90.6701 31.9334L90.621 32.7241H90.3644L90.4626 31.3795H90.8612L91.0933 32.037C91.1229 32.1405 91.1475 32.24 91.1822 32.3785H91.1873C91.2221 32.2544 91.2517 32.1416 91.2814 32.0421L91.5134 31.3795H91.8978L92 32.7241H91.7342Z" fill="#EC1944"/>
</svg>
