<svg width="151" height="25" viewBox="0 0 151 25" fill="none" xmlns="http://www.w3.org/2000/svg">
<g clip-path="url(#clip0_882_4967)">
<mask id="mask0_882_4967" style="mask-type:luminance" maskUnits="userSpaceOnUse" x="0" y="0" width="150" height="25">
<path d="M149.948 0.378906H0.666748V24.6213H149.948V0.378906Z" fill="white"/>
</mask>
<g mask="url(#mask0_882_4967)">
<path d="M57.913 17.7524C56.3136 17.7524 54.9807 16.4056 54.9807 14.5201C54.9807 12.6345 56.3802 11.2877 57.913 11.2877C59.5124 11.2877 60.8453 12.5672 60.8453 14.5201C60.8453 16.4056 59.5124 17.7524 57.913 17.7524ZM57.913 9.26758C54.9807 9.26758 52.6482 11.4898 52.6482 14.5874C52.6482 17.6177 54.9807 19.9073 57.913 19.9073C60.8453 19.9073 63.1778 17.6851 63.1778 14.5874C63.1778 11.4898 60.7787 9.26758 57.913 9.26758Z" fill="#5F6368"/>
<path d="M69.3758 17.7524C67.7763 17.7524 66.4435 16.4056 66.4435 14.5201C66.4435 12.6345 67.843 11.2877 69.3758 11.2877C70.9752 11.2877 72.3081 12.5672 72.3081 14.5201C72.3747 16.4056 70.9752 17.7524 69.3758 17.7524ZM69.3758 9.26758C66.4435 9.26758 64.111 11.4898 64.111 14.5874C64.111 17.6177 66.4435 19.9073 69.3758 19.9073C72.3081 19.9073 74.6406 17.6851 74.6406 14.5874C74.6406 11.4898 72.3081 9.26758 69.3758 9.26758Z" fill="#5F6368"/>
<path d="M80.8383 17.7524C79.2391 17.7524 77.906 16.4056 77.906 14.5874C77.906 12.7019 79.2391 11.355 80.8383 11.355C82.4375 11.355 83.6375 12.7019 83.6375 14.5874C83.6375 16.4056 82.3714 17.7524 80.8383 17.7524ZM83.5044 9.53686V10.4123H83.4375C82.9044 9.80626 81.9044 9.2002 80.7052 9.2002C78.106 9.2002 75.7069 11.5571 75.7069 14.52C75.7069 17.483 78.106 19.7725 80.7052 19.7725C81.9714 19.7725 82.9714 19.2338 83.4375 18.5604H83.5044V19.3012C83.5044 21.3214 82.4375 22.3988 80.7052 22.3988C79.306 22.3988 78.4391 21.3888 78.0391 20.5133L76.0401 21.3888C76.6399 22.8028 78.1729 24.5537 80.7052 24.5537C83.4375 24.5537 85.7037 22.9375 85.7037 19.0318V9.53686H83.5044Z" fill="#5F6368"/>
<path d="M95.6999 11.2877C96.633 11.2877 97.366 11.7591 97.6322 12.4325L92.9676 14.3853C92.9006 12.2978 94.4999 11.2877 95.6999 11.2877ZM95.8999 17.7523C94.6999 17.7523 93.9006 17.2136 93.3676 16.1362L100.364 13.1732L100.098 12.5672C99.6314 11.355 98.2991 9.2002 95.633 9.2002C92.9006 9.2002 90.7014 11.355 90.7014 14.52C90.7014 17.483 92.9006 19.8399 95.8999 19.8399C98.2991 19.8399 99.6983 18.3584 100.298 17.483L98.4991 16.2709C97.8322 17.1463 97.033 17.7523 95.8999 17.7523Z" fill="#5F6368"/>
<path d="M89.569 3.94775H87.2367V19.5033H89.569V3.94775Z" fill="#5F6368"/>
<path d="M51.7154 10.8839H44.2514V13.1061H49.5829C49.4496 14.3855 48.9831 15.261 48.3833 15.9344C47.5836 16.7424 46.384 17.5505 44.2514 17.5505C40.9859 17.5505 38.3868 14.8569 38.3868 11.5573C38.3868 8.25757 40.9193 5.56398 44.2514 5.56398C46.0508 5.56398 47.317 6.23738 48.25 7.18014L49.8494 5.56398C48.5166 4.28452 46.7839 3.27441 44.2514 3.27441C39.7197 3.34175 35.9877 7.04546 35.9877 11.6246C35.9877 16.1364 39.7864 19.8401 44.2514 19.8401C46.6506 19.8401 48.5166 19.032 49.9161 17.5505C51.3822 16.069 51.8487 13.9815 51.8487 12.298C51.8487 11.7592 51.7821 11.2879 51.7154 10.8839Z" fill="#5F6368"/>
<path d="M116.293 13.2408H110.361V19.5035H108.495V4.95801H116.892V6.77619H110.361V11.49H116.293V13.2408Z" fill="#5F6368"/>
<path d="M120.224 19.5034H118.358V9.537H120.224V19.5034ZM120.624 6.10266C120.624 6.43936 120.491 6.77606 120.224 7.04542C119.958 7.31478 119.691 7.44946 119.291 7.44946C118.958 7.44946 118.625 7.31478 118.358 7.04542C118.092 6.77606 117.958 6.5067 117.958 6.10266C117.958 5.76596 118.092 5.42926 118.358 5.1599C118.625 4.89054 118.891 4.75586 119.291 4.75586C119.624 4.75586 119.958 4.89054 120.224 5.1599C120.491 5.42926 120.624 5.76596 120.624 6.10266Z" fill="#5F6368"/>
<path d="M127.022 18.1566C127.888 18.1566 128.621 17.82 129.221 17.1466C129.821 16.4732 130.154 15.5977 130.154 14.5876C130.154 13.5102 129.821 12.7021 129.221 12.0287C128.621 11.3553 127.888 11.0186 127.022 11.0186C126.089 11.0186 125.356 11.3553 124.757 12.0287C124.157 12.7021 123.89 13.5775 123.89 14.5876C123.89 15.665 124.157 16.5405 124.757 17.2139C125.423 17.82 126.156 18.1566 127.022 18.1566ZM127.355 19.8401C126.622 19.8401 125.956 19.7055 125.356 19.3688C124.757 19.0321 124.29 18.628 123.957 18.1566H123.89V19.5708H122.091V4.95801H123.957V9.53717L123.89 10.9513H123.957C124.29 10.4125 124.757 10.0085 125.356 9.73914C125.956 9.40247 126.622 9.26777 127.355 9.26777C128.688 9.26777 129.754 9.80649 130.687 10.8166C131.621 11.8941 132.087 13.1062 132.087 14.5876C132.087 16.0691 131.621 17.3486 130.687 18.3587C129.754 19.3014 128.621 19.8401 127.355 19.8401Z" fill="#5F6368"/>
<path d="M135.086 13.3081H140.751C140.684 12.6347 140.418 12.0286 139.884 11.5572C139.351 11.0858 138.684 10.8838 137.885 10.8838C137.218 10.8838 136.618 11.0858 136.085 11.5572C135.619 12.0286 135.286 12.5673 135.086 13.3081ZM138.085 19.84C136.618 19.84 135.419 19.3687 134.486 18.3585C133.553 17.3484 133.087 16.069 133.087 14.5875C133.087 13.0387 133.553 11.8266 134.486 10.8165C135.419 9.80633 136.552 9.33496 138.018 9.33496C139.484 9.33496 140.618 9.80632 141.484 10.7491C142.35 11.6919 142.75 13.0387 142.75 14.7895V14.9916H135.019C135.019 15.9343 135.352 16.7424 135.952 17.3484C136.552 17.9545 137.285 18.2239 138.151 18.2239C139.351 18.2239 140.284 17.6178 140.951 16.4057L142.617 17.2137C142.15 18.0219 141.551 18.6953 140.751 19.1666C139.951 19.5706 139.018 19.84 138.085 19.84Z" fill="#5F6368"/>
<path d="M145.682 14.0487V19.5706H143.816V9.5369H145.615V11.153H145.682C145.882 10.6143 146.282 10.143 146.815 9.80629C147.415 9.4022 147.948 9.26758 148.547 9.26758C149.081 9.26758 149.547 9.33485 149.947 9.5369L149.414 11.3551C149.214 11.2877 148.814 11.2204 148.347 11.2204C147.681 11.2204 147.015 11.4898 146.548 12.0958C145.949 12.5672 145.682 13.2406 145.682 14.0487Z" fill="#5F6368"/>
<path d="M0.666748 13.106V24.6212C6.93119 24.6212 12.0627 19.5033 12.0627 13.106H0.666748Z" fill="#EA4335"/>
<path d="M13.2621 13.106V24.6212C19.5265 24.6212 24.6581 19.5033 24.6581 13.106H13.2621Z" fill="#FBBC04"/>
<path d="M0.666748 0.378906V11.8941C6.93119 11.8941 12.0627 6.77621 12.0627 0.378906H0.666748Z" fill="#4285F4"/>
<path d="M13.2621 0.378906V11.8941C19.5265 11.8941 24.6581 6.77621 24.6581 0.378906H13.2621Z" fill="#34A853"/>
</g>
</g>
<defs>
<clipPath id="clip0_882_4967">
<rect width="150" height="25" fill="white" transform="translate(0.666748)"/>
</clipPath>
</defs>
</svg>
