<svg width="121" height="40" viewBox="0 0 121 40" fill="none" xmlns="http://www.w3.org/2000/svg">
<g clip-path="url(#clip0_882_15178)">
<path fill-rule="evenodd" clip-rule="evenodd" d="M19.032 12.5H12.8702C10.6838 12.5 9.64025 13.1 9.64025 13.1V0H0V40H9.59055V23.85C9.59055 22.4 10.7335 21.25 12.1745 21.25H17.7897C19.2308 21.25 20.3737 22.4 20.3737 23.85V40H29.9643V22.6C29.9643 15.3 25.0945 12.5 19.032 12.5ZM111.409 12.5V28.65C111.409 30.1 110.267 31.25 108.825 31.25H103.21C101.769 31.25 100.626 30.1 100.626 28.65V12.5H91.0357V29.45C91.0357 36.4 95.4583 40 101.968 40H111.36V39.95C117.372 39.95 120.95 35.65 120.95 29.45V12.5H111.409ZM57.1955 28.6C57.1955 30.05 56.0526 31.2 54.6115 31.2H49.046C47.6049 31.2 46.462 30.05 46.462 28.6V12.5H36.8218V29.45C36.8218 36.4 41.2444 40 47.754 40H57.1458V39.95C63.1585 39.95 66.7364 35.65 66.7364 29.45V12.5H57.1458C57.1955 12.5 57.1955 28.6 57.1955 28.6ZM74.1404 40H83.731V0H74.1404V40Z" fill="#1CE783"/>
</g>
<defs>
<clipPath id="clip0_882_15178">
<rect width="121" height="40" fill="white"/>
</clipPath>
</defs>
</svg>
