<svg width="109" height="30" viewBox="0 0 109 30" fill="none" xmlns="http://www.w3.org/2000/svg">
<g clip-path="url(#clip0_882_15172)">
<path d="M103.175 14.2841L109 30C107.293 29.7614 105.552 29.4205 103.811 29.1477L100.53 20.4545L97.1493 28.4318C95.5089 28.1591 93.8685 28.0568 92.1947 27.8523L98.1201 14.1136L92.7638 0H97.7518L100.765 7.875L103.979 0H109L103.175 14.2841ZM88.847 0H84.3277V27.2386C85.8007 27.3409 87.3406 27.4091 88.847 27.5795V0ZM80.4444 26.9318C76.3268 26.6591 72.2091 26.3864 68.0246 26.3182V0H72.6109V21.8864C75.2555 21.9545 77.9002 22.1591 80.4444 22.2955V26.9318ZM63.1035 10.6705V15.3409H56.8099V26.0114H52.2571V0H65.1456V4.67045H56.8099V10.6364H63.1035V10.6705ZM44.524 4.67045V26.25C42.984 26.25 41.4106 26.25 39.9042 26.3182V4.67045H35.1505V0H49.3111V4.67045H44.524ZM30.1959 15.5795C28.1873 15.5795 25.777 15.5795 24.0697 15.6818V22.6364C26.7813 22.4318 29.4595 22.2273 32.2045 22.125V26.625L19.4834 27.6477V0H32.2045V4.67045H24.0697V10.9773C25.844 10.9773 28.5891 10.875 30.1959 10.875V15.5795ZM4.68673 12.9545V29.3182C3.04638 29.5227 1.5734 29.7614 0 30V0H4.38544L10.3778 17.0455V0H14.9975V28.0568C13.3572 28.3295 11.7168 28.4318 9.97604 28.6705L4.68673 12.9545Z" fill="#E50914"/>
</g>
<defs>
<clipPath id="clip0_882_15172">
<rect width="109" height="30" fill="white"/>
</clipPath>
</defs>
</svg>
