<svg width="107" height="22" viewBox="0 0 107 22" fill="none" xmlns="http://www.w3.org/2000/svg">
<path d="M28.6611 10.9722H30.0858V15.8755C30.0858 17.5408 30.7704 19.0765 33.9714 19.0765C35.1371 19.0765 36.4508 18.9285 36.9504 18.836V14.7653C36.9504 14.7653 36.3583 14.8024 35.8402 14.7839C34.8966 14.7839 34.9336 14.2658 34.9336 13.9327V10.9722H37.0799V6.77208H34.9521V2.94197H30.1043V6.77208H28.6611V10.9722ZM6.71657 6.36501C10.5652 6.36501 13.4331 9.23297 13.4331 12.804C13.4331 16.3936 10.5652 19.2431 6.71657 19.2431C2.86796 19.2431 0 16.3936 0 12.804C0 9.21447 2.86796 6.36501 6.71657 6.36501ZM6.71657 10.7502C5.56939 10.7502 4.64424 11.6754 4.64424 12.8225C4.64424 13.9697 5.56939 14.8949 6.71657 14.8949C7.86375 14.8949 8.8074 13.9697 8.7889 12.8225C8.7889 11.6754 7.86375 10.7502 6.71657 10.7502ZM22.5736 6.36501C25.7006 6.36501 28.1615 9.06644 28.1431 12.804C28.1431 16.5601 25.6821 19.2616 22.5551 19.2616C21.1859 19.2616 20.0387 18.836 19.2061 17.9294V22H14.3583V6.77208H19.2061V6.97561C19.2061 7.32717 19.1876 7.60471 19.1505 7.77124C19.9832 6.80908 21.1489 6.36501 22.5736 6.36501ZM21.1859 10.7502C20.0387 10.7502 19.1135 11.6754 19.1135 12.8225C19.1135 13.9697 20.0387 14.8949 21.1859 14.8949C22.3331 14.8949 23.2582 13.9697 23.2582 12.8225C23.2582 11.6754 22.3331 10.7502 21.1859 10.7502ZM42.2237 0C40.5955 0 39.2632 1.33221 39.2632 2.96047C39.2632 4.58873 40.5955 5.92094 42.2237 5.92094C43.852 5.92094 45.1842 4.58873 45.1842 2.96047C45.1842 1.33221 43.8705 0 42.2237 0ZM38.3936 10.9722H39.8183V18.8545H44.6661V6.77208H38.3936V10.9722ZM74.1413 13.2851C74.1413 14.2658 73.4567 14.5803 72.9201 14.5803C72.3835 14.5803 71.7544 14.2658 71.7544 13.2851V6.77208H66.9067V13.9142C66.9067 16.4491 68.8125 19.058 72.9386 19.058C77.0648 19.058 78.9706 16.4306 79.0076 13.9142V6.77208H74.1598L74.1413 13.2851ZM95.3827 6.56854C93.7729 6.56854 92.4592 7.25315 91.5341 8.40034C90.8495 7.27166 89.6653 6.56854 88.148 6.56854C87.0008 6.56854 85.8167 7.10513 85.058 7.99327C85.058 7.99327 85.1506 7.58621 85.1506 6.99411V6.77208H80.3028V18.873H85.1506V11.4718C85.2801 11.2498 85.7797 10.8057 86.3903 10.8057C87.0379 10.8057 87.5744 11.1758 87.5744 12.0454V18.873H92.4222V11.4718C92.5702 11.2498 93.0513 10.8057 93.6619 10.8057C94.3095 10.8057 94.8461 11.1758 94.8461 12.0454V18.873H99.7124V10.6022C99.7124 7.97477 97.5475 6.56854 95.3827 6.56854ZM61.2447 6.56854C59.635 6.56854 58.3213 7.25315 57.3961 8.40034C56.7115 7.27166 55.5273 6.56854 54.0101 6.56854C52.8629 6.56854 51.6787 7.10513 50.9201 7.99327C50.9201 7.99327 51.0126 7.58621 51.0126 6.99411V6.77208H46.1648V18.873H51.0126V11.4718C51.1421 11.2498 51.6417 10.8057 52.2523 10.8057C52.8999 10.8057 53.4365 11.1758 53.4365 12.0454V18.873H58.2843V11.4718C58.4138 11.2498 58.9134 10.8057 59.524 10.8057C60.1716 10.8057 60.7082 11.1758 60.7082 12.0454V18.873H65.5561V10.6022C65.5744 7.97477 63.4096 6.56854 61.2447 6.56854Z" fill="black"/>
<path d="M103.615 13.1552C101.987 13.1552 100.654 14.4874 100.654 16.1156C100.654 17.7439 101.987 19.0761 103.615 19.0761C105.243 19.0761 106.575 17.7439 106.575 16.1156C106.575 14.4874 105.243 13.1552 103.615 13.1552Z" fill="#F66608"/>
</svg>
