<svg width="132" height="40" viewBox="0 0 132 40" fill="none" xmlns="http://www.w3.org/2000/svg">
<g clip-path="url(#clip0_882_4989)">
<path d="M8.75133 12.3553C4.10793 12.3553 0.333374 16.0968 0.333374 20.6995V40H4.32496V29.2872L5.79137 30.8207L11.657 28.5335C14.9975 27.2413 17.17 24.2528 17.17 20.7003C17.17 16.0975 13.3955 12.3553 8.75133 12.3553ZM10.2456 25.0341L4.32569 27.322V20.7003C4.32569 18.0351 6.33541 16.1244 8.75206 16.1244C11.1687 16.1244 13.1784 18.062 13.1784 20.7003C13.1784 22.369 12.3638 24.1997 10.2456 25.0341ZM79.1943 12.3553C74.5508 12.3553 70.7763 16.0968 70.7763 20.6995C70.7763 25.3023 74.5508 29.0437 79.1943 29.0437C83.8377 29.0437 87.6122 25.3023 87.6122 20.6995C87.6122 16.0968 83.8377 12.3553 79.1943 12.3553ZM79.1943 25.2761C76.642 25.2761 74.7679 23.2578 74.7679 20.7003C74.7679 18.1427 76.6962 16.1244 79.1943 16.1244C81.7466 16.1244 83.6206 18.1427 83.6206 20.7003C83.6206 23.2578 81.7466 25.2761 79.1943 25.2761ZM97.4159 16.1244C99.1529 16.1244 100.565 17.0663 101.299 18.4661L104.422 16.0975C102.901 13.8634 100.349 12.3829 97.4159 12.3829C92.7718 12.3829 88.9972 16.1244 88.9972 20.7271C88.9972 25.3299 92.7718 29.0714 97.4159 29.0714C100.322 29.0714 102.9 27.5909 104.422 25.3568L101.299 22.9874C100.565 24.388 99.1529 25.3299 97.4159 25.3299C94.8629 25.3299 92.9896 23.3116 92.9896 20.754C92.9896 18.1965 94.9172 16.1244 97.4159 16.1244ZM63.3621 16.1244C65.1005 16.1244 66.5127 17.0663 67.2459 18.4661L70.3686 16.0975C68.848 13.8634 66.2949 12.3829 63.3621 12.3829C58.7187 12.3829 54.9441 16.1244 54.9441 20.7271C54.9441 25.3299 58.7187 29.0714 63.3621 29.0714C66.2678 29.0714 68.848 27.5909 70.3686 25.3568L67.2459 22.9874C66.5127 24.388 65.1005 25.3299 63.3621 25.3299C60.8098 25.3299 58.9357 23.3116 58.9357 20.754C58.9357 18.1965 60.8369 16.1244 63.3621 16.1244ZM49.404 14.3474C48.0461 12.9477 46.2542 12.3561 44.3801 12.3561C40.4692 12.3561 36.5054 15.8824 36.5054 20.7003C36.5054 25.5181 40.4692 29.0445 44.3801 29.0445C46.2542 29.0445 48.0461 28.4529 49.404 27.0531V28.5604H53.3963V12.8663H49.404V14.3474ZM44.9777 25.2761C42.4261 25.2761 40.497 23.2578 40.497 20.7003C40.497 18.1427 42.4796 16.1244 44.9777 16.1244C47.5307 16.1244 49.404 18.1427 49.404 20.7003C49.404 23.2578 47.5307 25.2761 44.9777 25.2761ZM115.528 20.1348H113.736L120.661 12.8401H115.528L109.934 18.8164V4.28076H105.942V28.5612H109.934V24.0929L112.134 21.7774L116.831 28.5612H121.665L115.528 20.1348ZM26.8916 12.3553C22.2482 12.3553 18.4737 16.0968 18.4737 20.6995C18.4737 25.3023 22.2482 29.0437 26.8916 29.0437C29.6617 29.0437 32.2682 27.7254 33.7625 25.6795L30.5577 23.4722C30.1771 24.0914 28.9556 25.2746 26.8916 25.2746C24.9911 25.2746 23.4426 24.1445 22.7915 22.5027H34.9305C35.0669 21.9111 35.1211 21.3188 35.1211 20.6995C35.1468 16.0975 31.5358 12.3553 26.8916 12.3553ZM22.8187 18.8964C23.4705 17.2539 25.0183 16.1244 26.8916 16.1244C28.7928 16.1244 30.2321 17.2546 30.8297 18.8964H22.8187Z" fill="#161616"/>
<path d="M128.917 26.1919C127.586 26.1919 126.499 27.2683 126.499 28.5881C126.499 29.9065 127.585 30.9829 128.917 30.9829C130.247 30.9829 131.333 29.9072 131.333 28.5881C131.333 27.2683 130.247 26.1919 128.917 26.1919Z" fill="#069DE0"/>
<path d="M128.917 19.6509C127.586 19.6509 126.499 20.7272 126.499 22.0471C126.499 23.3655 127.585 24.4418 128.917 24.4418C130.247 24.4418 131.333 23.3662 131.333 22.0471C131.306 20.7004 130.247 19.6509 128.917 19.6509Z" fill="#6E55DC"/>
<path d="M128.917 32.7329C127.586 32.7329 126.499 33.8093 126.499 35.1291C126.499 36.4475 127.585 37.5239 128.917 37.5239C130.247 37.5239 131.333 36.4482 131.333 35.1291C131.333 33.8093 130.247 32.7329 128.917 32.7329Z" fill="#05AC3F"/>
<path d="M128.917 13.082C127.586 13.082 126.499 14.1584 126.499 15.4782C126.499 16.7966 127.585 17.8737 128.917 17.8737C130.247 17.8737 131.333 16.7973 131.333 15.4782C131.306 14.1591 130.247 13.082 128.917 13.082Z" fill="#EF1541"/>
<path d="M128.917 6.54102C127.586 6.54102 126.499 7.61738 126.499 8.93722C126.499 10.2556 127.585 11.3327 128.917 11.3327C130.247 11.3327 131.333 10.2563 131.333 8.93722C131.306 7.61811 130.247 6.54102 128.917 6.54102Z" fill="#FF7112"/>
<path d="M128.917 0C127.586 0 126.499 1.07637 126.499 2.39621C126.499 3.71459 127.585 4.79169 128.917 4.79169C130.247 4.79169 131.333 3.71532 131.333 2.39621C131.306 1.07709 130.247 0 128.917 0Z" fill="#FCCC12"/>
</g>
<defs>
<clipPath id="clip0_882_4989">
<rect width="131" height="40" fill="white" transform="translate(0.333374)"/>
</clipPath>
</defs>
</svg>
