<svg width="90" height="42" viewBox="0 0 90 42" fill="none" xmlns="http://www.w3.org/2000/svg">
<g clip-path="url(#clip0_1008_4810)">
<path d="M77.8535 12.3112C73.2548 12.3112 69.5265 15.9023 69.5265 20.3318C69.5265 24.7615 73.2548 28.3524 77.8535 28.3524C82.4523 28.3524 86.1805 24.7615 86.1805 20.3318C86.1805 15.9023 82.4523 12.3112 77.8535 12.3112ZM88.9562 20.3318C88.9562 26.238 83.9855 31.0259 77.8535 31.0259C71.7215 31.0259 66.7509 26.238 66.7509 20.3318C66.7509 14.4256 71.7215 9.6377 77.8535 9.6377C83.9855 9.6377 88.9562 14.4256 88.9562 20.3318Z" fill="#0C93F2"/>
<path d="M54.6794 2.28542C54.6794 3.20821 53.9073 3.95639 52.9549 3.95639C52.0025 3.95639 51.2303 3.20821 51.2303 2.28542C51.2303 1.36262 52.0025 0.61438 52.9549 0.61438C53.9073 0.61438 54.6794 1.36262 54.6794 2.28542Z" fill="#0C93F2"/>
<path d="M26.8153 0.306396C26.6829 0.306396 26.5756 0.409803 26.5756 0.537298V0.614583V29.6127C26.5756 30.348 27.1946 30.903 27.9578 30.903C28.7212 30.903 29.3515 30.3706 29.3515 29.6892L29.3296 19.4112C29.3515 15.4009 32.8211 12.3522 36.9846 12.3522C41.1479 12.3522 43.2115 15.319 43.2297 19.3293V29.4678C43.2287 29.4901 43.2295 29.5091 43.2295 29.5308C43.2295 30.2661 43.842 30.94 44.6052 30.94C45.368 30.94 46.0041 30.3576 46.0054 29.6892V18.8959C46.0054 11.6429 41.1479 9.63766 36.9846 9.63766C33.8619 9.63766 31.0862 10.842 29.3516 13.1815V3.62237C29.3516 2.0343 28.4114 0.460945 26.8291 0.306942L26.8153 0.306396Z" fill="#0C93F2"/>
<path d="M51.5567 29.6892V29.6959C51.5567 30.3644 52.191 31.024 52.9544 31.024C53.7178 31.024 54.3324 30.3594 54.3324 29.6909V13.1207C54.3324 11.5326 53.3925 9.95951 51.81 9.80551L51.7965 9.80469C51.6641 9.80469 51.5568 9.90829 51.5568 10.0356L51.5567 29.6892Z" fill="#0C93F2"/>
<path d="M59.8838 29.6891C59.8838 30.3576 60.5139 31.0205 61.2773 31.0205C62.0407 31.0205 62.6595 30.3576 62.6595 29.6891V3.61118C62.6595 2.02333 61.7194 0.45003 60.1371 0.296228L60.1236 0.29541C59.9911 0.29541 59.8839 0.398813 59.8839 0.526107L59.8838 29.6891Z" fill="#0C93F2"/>
<path d="M3.32975 38.3885C3.32975 39.9764 2.38972 41.5499 0.807425 41.7037L0.793641 41.7045C0.661407 41.7045 0.554133 41.6012 0.554133 41.4737L0.553711 20.3318C0.553711 14.3163 5.41124 9.6377 11.6564 9.6377C17.9196 9.6377 22.7593 14.3163 22.7593 20.3318C22.7593 26.3472 17.9017 31.0259 11.6564 31.0259C7.20706 31.0259 6.54238 28.7828 6.99521 27.3832L7.00018 27.3698C7.03979 27.2564 7.15084 27.1746 7.28181 27.1746C7.34699 27.1746 7.40711 27.1947 7.45594 27.2289L7.49596 27.2537C8.57681 27.9603 9.50384 28.4084 11.6563 28.4084C16.5138 28.4084 19.9835 24.3414 19.9835 20.3311C19.9835 16.3207 16.5138 12.3104 11.6825 12.3104C6.799 12.3104 3.32953 16.3207 3.32953 20.3311L3.32975 38.3885Z" fill="#0C93F2"/>
</g>
<defs>
<clipPath id="clip0_1008_4810">
<rect width="89" height="42" fill="white" transform="translate(0.254944)"/>
</clipPath>
</defs>
</svg>
