<svg width="89" height="48" viewBox="0 0 89 48" fill="none" xmlns="http://www.w3.org/2000/svg">
<path d="M22.5116 7.816V38.1854C22.5116 38.4085 22.6707 38.5678 22.8934 38.5678H28.0168C28.2396 38.5678 28.3987 38.4085 28.3987 38.1854V7.816C28.3987 7.59293 28.2396 7.43359 28.0168 7.43359H22.8616C22.6707 7.43359 22.5116 7.59293 22.5116 7.816ZM6.50494 22.3474C6.50494 21.3595 7.90512 20.6585 10.0054 20.6585C12.4239 20.6585 14.6833 21.5189 16.1153 22.7298C16.3699 22.9529 16.7835 22.8892 16.9427 22.5705L18.6611 19.1288C18.7883 18.9058 18.7247 18.5871 18.5338 18.4596C16.4017 16.8663 13.5377 15.6872 9.97357 15.6872C4.11826 15.6872 0.840566 18.9695 0.840566 22.698C0.840566 31.4296 14.0786 28.4022 14.0786 32.2581C14.0786 33.3097 12.8694 34.202 10.3554 34.202C7.84147 34.202 4.85018 33.2141 3.13177 31.812C2.87719 31.5889 2.49533 31.6845 2.30439 31.9713L0.331409 35.2536C0.20412 35.4767 0.235942 35.7635 0.426876 35.9228C2.78173 37.8986 6.34582 39.0777 10.0372 39.0777C16.2107 39.0777 19.6794 36.0184 19.6794 31.9076C19.6794 23.1441 6.50494 25.8528 6.50494 22.3474ZM32.4401 16.0377V38.1535C32.4401 38.3766 32.5992 38.5359 32.822 38.5359H37.9454C38.1681 38.5359 38.3272 38.3766 38.3272 38.1535V16.0377C38.3272 15.8147 38.1681 15.6553 37.9454 15.6553H32.822C32.5992 15.6872 32.4401 15.8465 32.4401 16.0377ZM57.357 38.1535C57.357 38.3766 57.5161 38.5359 57.7388 38.5359H62.8622C63.085 38.5359 63.2441 38.3766 63.2441 38.1535V23.6858C63.2441 19.3519 60.0619 15.6235 55.1931 15.6235C51.5335 15.6235 49.0832 17.4717 48.1922 19.097V16.0377C48.1922 15.8147 48.033 15.6553 47.8103 15.6553H42.6869C42.4641 15.6553 42.305 15.8147 42.305 16.0377V38.1535C42.305 38.3766 42.4641 38.5359 42.6869 38.5359H47.8103C48.033 38.5359 48.1922 38.3766 48.1922 38.1535V26.0121C48.1922 23.3034 50.1651 20.8815 52.9655 20.8815C55.3522 20.8815 57.357 22.1244 57.357 25.2155V38.1535ZM67.381 44.3676C67.2855 44.527 67.3174 44.7182 67.4446 44.8456C70.1496 47.1401 73.0772 47.9686 76.8004 47.9686C82.3057 47.9686 88.8611 45.483 88.8611 36.9745V16.5795C88.8611 16.3564 88.702 16.1971 88.4792 16.1971H83.324C83.1012 16.1971 82.9421 16.3564 82.9421 16.5795V19.0651C81.5101 16.7069 78.9962 15.6553 76.3231 15.6553C70.6905 15.6553 66.2354 20.4354 66.2354 27.733C66.2354 33.7877 70.4996 39.1096 76.3231 39.1096C79.0916 39.1096 81.1919 37.803 82.9421 35.6042V37.1657C82.9421 41.5633 79.6326 43.1885 76.8004 43.1885C74.1592 43.1885 71.8998 42.4875 70.1496 40.7666C69.9904 40.6073 69.704 40.6392 69.5767 40.8304L67.381 44.3676ZM77.9142 33.1504C74.6047 33.1504 72.2816 30.9197 72.2816 27.0638C72.2816 23.2078 74.6047 20.8497 77.9142 20.8497C80.9691 20.8497 82.9421 23.7177 82.9421 27.0638C82.9421 30.4098 80.9691 33.1504 77.9142 33.1504ZM86.3789 47.9686H86.6972V46.8214H87.1108V46.5665H85.9971V46.8214H86.4107V47.9686H86.3789ZM88.3837 47.4269L88.5428 46.9807V48.0005H88.8611V46.5983H88.4474L88.0973 47.4906L87.7473 46.5983H87.3336V48.0005H87.6518V46.9807L88.0655 48.0005H88.1928L88.3837 47.4269Z" fill="#11AAE0"/>
<path d="M31.868 6.85938C31.8998 4.88362 33.4909 3.32213 35.4639 3.35399C37.4369 3.38586 38.9962 4.97922 38.9644 6.95498C38.9325 8.86701 37.3414 10.4922 35.3684 10.4604C33.4273 10.4285 31.868 8.77141 31.868 6.85938Z" fill="#11AAE0"/>
<path d="M42.9104 10.6824C44.6925 10.2682 46.029 8.73853 46.0609 6.89024V6.85837C46.0609 5.01007 44.7561 3.44858 43.0059 2.97057C42.8468 2.93871 42.624 3.03431 42.7513 3.25738C43.4833 4.53207 43.6424 5.90235 43.6424 6.85837C43.6424 7.78252 43.4196 9.1528 42.6877 10.4275C42.5286 10.6187 42.7195 10.7143 42.9104 10.6824Z" fill="#11AAE0"/>
<path d="M49.5933 12.1808C52.0755 11.6072 53.9212 9.47209 53.9848 6.85899V6.82712C53.9848 4.24588 52.1709 2.04704 49.7206 1.4097C49.4661 1.34597 49.1797 1.5053 49.3388 1.79211C50.3571 3.57667 50.6117 5.4887 50.5798 6.79525C50.548 8.10181 50.2616 10.0138 49.2115 11.7665C49.0524 12.0852 49.3388 12.2445 49.5933 12.1808Z" fill="#11AAE0"/>
<path d="M56.7216 0.485467C57.9945 2.74804 58.3127 5.16994 58.3127 6.82703C58.2809 8.48412 57.9308 10.906 56.5943 13.1367C56.3715 13.4873 56.7534 13.8059 57.0398 13.7422C60.1902 13.0093 62.5451 10.1731 62.5769 6.92263V6.89077C62.6087 3.60845 60.2857 0.836006 57.1671 0.0393269C56.8807 -0.0881417 56.5306 0.103061 56.7216 0.485467Z" fill="#11AAE0"/>
</svg>
