<svg width="141" height="30" viewBox="0 0 141 30" fill="none" xmlns="http://www.w3.org/2000/svg">
<g clip-path="url(#clip0_882_15162)">
<path d="M2.58401 21.8023C4.04744 23.0547 6.24488 23.6801 9.17634 23.6786C12.0204 23.6786 14.2178 23.0747 15.7687 21.8668C17.3195 20.5714 18.095 18.7588 18.095 16.4292C18.118 15.3917 17.8731 14.3658 17.384 13.451C16.8776 12.5603 16.1205 11.8387 15.2072 11.3765C14.6653 11.1037 14.0981 10.8844 13.5137 10.7218C12.7222 10.4775 8.78057 9.40101 8.3802 9.29498C6.18506 8.75329 4.79066 8.02028 4.78146 6.72713C4.8942 4.21 7.23661 4.00715 8.52976 4.00715C9.86434 4.00715 10.9197 4.2876 11.6959 4.8485C13.0765 5.93419 12.9316 7.31032 12.9316 7.31032H17.3172C17.2298 5.15892 16.4544 3.41014 14.9909 2.06398C13.5689 0.856125 11.5441 0.252197 8.91633 0.252197C6.11526 0.252197 3.98301 0.834612 2.51958 1.99944C1.05462 3.20883 0.322138 4.87079 0.322138 6.9853C0.329041 9.69376 1.61529 11.2958 2.7888 12.0288C3.4975 12.4529 5.10359 13.103 7.18369 13.5179L8.93014 13.8982C11.9605 14.6381 13.7001 15.5763 13.6449 17.0769C13.6126 17.9828 13.2997 18.6743 12.6117 19.1515C11.9812 19.5848 10.909 19.8637 9.57441 19.8637C8.05883 19.8653 6.87075 19.5587 6.01018 18.944C5.19103 18.4261 4.69555 17.5195 4.52374 16.224H0C0.128855 18.6828 0.990192 20.5383 2.58401 21.7908" fill="#003057"/>
<path d="M23.4333 27.5419C23.4357 27.8332 23.3803 28.122 23.2701 28.3916C23.16 28.6612 22.9974 28.9061 22.7918 29.1121C22.5862 29.3181 22.3417 29.481 22.0726 29.5913C21.8034 29.7017 21.5151 29.7572 21.2243 29.7548H19.0154V13.5547C19.2731 9.24425 20.8378 5.8097 27.3726 5.57458C30.1982 5.61147 32.2507 6.72712 33.4633 8.15626C34.7633 9.84818 35.3179 11.9504 35.3179 14.5943C35.3179 17.3266 34.6682 19.5387 33.3689 21.2306C32.0712 22.8795 30.4045 23.7032 28.3689 23.7016C25.3155 23.7016 23.8337 22.4292 23.431 22.1895C23.431 22.3393 23.4333 27.5419 23.4333 27.5419ZM30.8379 14.7949C30.8379 13.1029 30.5272 9.52547 27.0711 9.52547C23.7876 9.52547 23.4333 13.0177 23.4333 14.7949C23.4333 19.2967 25.9874 19.866 27.2 19.866C30.3408 19.866 30.8379 16.5306 30.8379 14.7949Z" fill="#003057"/>
<path d="M44.2319 9.39406C47.0092 9.35718 47.4395 11.7245 47.5269 12.8908H40.9369C40.9369 12.8908 40.8817 9.45629 44.2319 9.39406ZM44.4252 19.8176C43.3069 19.7623 41.1739 19.541 40.9737 15.8045H52.1726C52.1726 15.6915 52.1726 14.4606 52.1726 14.4583C52.0944 11.6438 51.4202 9.54389 50.1017 7.96952C48.6797 6.41591 46.6763 5.6391 44.0915 5.6391C41.6371 5.6391 39.7197 6.43742 38.3391 8.03407C37.003 9.58768 36.3349 11.7452 36.3349 14.5067C36.3349 17.3988 37.0252 19.6216 38.4058 21.1753C39.7864 22.7719 41.7039 23.5702 44.1583 23.5702C46.1831 23.5702 47.8636 23.0739 49.1997 22.0812C50.5343 21.1338 51.4455 19.7461 51.9195 17.932H48.0377C47.4625 19.5617 46.0014 19.8959 44.4367 19.8176H44.4252Z" fill="#003057"/>
<path d="M64.5266 17.9413H68.7743C68.7743 17.9413 67.6238 23.5726 61.204 23.5726C54.7842 23.5726 53.2081 18.4138 53.2081 15.0254C53.2081 11.6369 53.8086 5.84657 60.9555 5.64373C67.557 5.54461 68.6454 11.275 68.6454 11.275H64.1217C64.1217 11.275 63.6822 9.33645 60.99 9.39868C58.2979 9.46092 57.5938 11.9919 57.5938 14.4007C57.5938 16.8095 58.192 19.8199 61.181 19.8199C64.025 19.9029 64.2758 18.3654 64.5266 17.9413Z" fill="#003057"/>
<path d="M74.2575 10.6296H76.9152V6.09322H74.2621V3.17961C74.2621 2.37975 73.818 0.978271 72.1291 0.978271H69.8028V20.0112C69.8028 21.9959 70.5713 23.183 72.2349 23.183H74.2575V10.6296Z" fill="#003057"/>
<path d="M81.6483 23.2153V14.3477C81.6483 13.0538 81.9497 12.1041 82.5526 11.4986C83.1554 10.8931 84.082 10.5912 85.3322 10.5927H86.8186V5.99641C86.8186 5.99641 84.4785 5.93879 82.7804 6.45743C81.7395 6.74439 80.7627 7.22704 79.9019 7.87965C79.0064 8.61436 78.3068 9.55998 77.8655 10.6319C77.37 11.7752 77.1223 13.189 77.1223 14.8732V23.2245L81.6483 23.2153Z" fill="#003057"/>
<path d="M88.0957 6.02405H92.6194V17.0284C92.6194 17.0284 92.4561 20.0043 95.5923 20.0066C98.5491 20.0066 98.625 17.3442 98.6273 17.1552V8.16546C98.6273 8.16546 98.7792 6.03096 100.742 6.03096H103.089C103.089 6.03096 103.089 16.1548 103.089 16.2516C103.057 16.8095 103.683 23.5771 95.5923 23.5518C87.578 23.5518 88.1463 16.7034 88.0957 16.3V6.02405Z" fill="#003057"/>
<path d="M119.421 23.2729H114.941V12.2086C114.941 10.9339 114.417 9.21198 111.888 9.21198C109.407 9.21198 108.897 11.1644 108.897 12.2086V23.2729H104.354V13.1306C104.354 10.1824 105.227 8.37985 106.655 7.20888C108.084 6.0379 109.891 5.66909 111.752 5.5815C112.735 5.58026 113.715 5.68928 114.674 5.90652C115.631 6.12594 116.522 6.57171 117.272 7.20657C117.938 6.63512 118.725 6.22356 119.573 6.00333C120.472 5.7443 121.4 5.60252 122.334 5.5815C127.88 5.55153 130.105 8.09633 130.289 8.91233C130.289 8.92385 130.289 23.2775 130.289 23.2775H127.732C127.084 23.2775 125.524 22.8349 125.524 21.0646V12.2109C125.535 10.9569 125.098 9.21429 122.47 9.21429C119.842 9.21429 119.417 11.1667 119.417 12.2109L119.421 23.2729Z" fill="#003057"/>
<path d="M131.561 8.8985V23.2522L141 16.0765L131.561 8.8985Z" fill="#0077BC"/>
</g>
<defs>
<clipPath id="clip0_882_15162">
<rect width="141" height="30" fill="white"/>
</clipPath>
</defs>
</svg>
