<svg width="132" height="30" viewBox="0 0 132 30" fill="none" xmlns="http://www.w3.org/2000/svg">
<g clip-path="url(#clip0_882_15157)">
<path d="M129.083 0.000192642L121.89 15.8279L119.171 9.82205H116.232L120.696 19.6432H123.071L131.999 0.000192642H129.083Z" fill="#D72624"/>
<path d="M52.6325 2.86605H58.4805V8.17839H52.6325V2.86605ZM6.63029 29.3881H12.7388L19.3695 9.82206H13.5215L9.79654 22.3947H9.722L5.9971 9.82206H0L6.63029 29.3881ZM28.0854 13.5285C30.134 13.5285 31.5494 15.0958 31.773 17.3885H23.9881C24.4352 15.0572 25.6641 13.5285 28.0854 13.5285ZM28.3835 25.6434C25.8133 25.6434 24.249 23.9234 23.9507 21.2871H37.6957C37.7328 17.0826 36.6524 13.7197 34.3803 11.6179C32.7789 10.0893 30.6554 9.24852 27.9735 9.24852C22.2376 9.24852 18.2518 13.7197 18.2518 19.5668C18.2518 25.452 22.0512 29.9614 28.3463 29.9614C30.7303 29.9614 32.6298 29.3118 34.1943 28.2032C35.8707 27.0192 37.0624 25.2991 37.3974 23.5796H31.8103C31.2517 24.8789 30.0968 25.6434 28.3835 25.6434ZM39.0738 29.3881H44.8846V20.408C44.8846 16.3186 47.2686 14.5223 50.919 15.0194H51.0306V9.86029C50.7326 9.74559 50.3975 9.70737 49.839 9.70737C47.5666 9.70737 46.0395 10.7772 44.7355 13.0701H44.6237V9.82206H39.0738V29.3881ZM52.6325 29.3881H58.4805V9.82206H52.6325V29.3881ZM60.0831 29.3881H76.398V24.6881H67.1606V24.5729L75.9885 14.4076V9.82206H60.0831V14.5223H69.0229V14.637L60.0831 24.8789V29.3881ZM86.7161 25.6049C83.9593 25.6049 82.5069 23.2359 82.5069 19.6433C82.5069 16.0127 83.9593 13.6815 86.7161 13.6815C89.4723 13.6815 90.9996 16.0127 90.9996 19.6433C90.9996 23.2359 89.4723 25.6049 86.7161 25.6049ZM86.7533 9.28685C80.6817 9.28685 76.6218 13.758 76.6218 19.6433C76.6218 25.4906 80.6817 30 86.7533 30C92.825 30 96.8848 25.4906 96.8848 19.6433C96.8848 13.758 92.825 9.28685 86.7533 9.28685ZM98.1516 29.3881H103.962V18.497C103.962 16.0127 105.378 14.2546 107.464 14.2546C109.475 14.2546 110.518 15.7072 110.518 17.7709V29.3881H116.329V16.6246C116.329 12.3058 113.796 9.24852 109.699 9.24852C107.091 9.24852 105.266 10.3952 103.888 12.497H103.776V9.82206H98.1516V29.3881Z" fill="#100F0D"/>
</g>
<defs>
<clipPath id="clip0_882_15157">
<rect width="132" height="30" fill="white"/>
</clipPath>
</defs>
</svg>
