<svg width="119" height="40" viewBox="0 0 119 40" fill="none" xmlns="http://www.w3.org/2000/svg">
<g clip-path="url(#clip0_882_15175)">
<path d="M13.3031 20.2201L20.786 10.2265H17.6681C16.2651 10.2265 15.3817 10.7184 14.6282 11.7023L10.6788 16.9838L6.85939 11.7023C6.13188 10.7184 5.22249 10.2265 3.81943 10.2265H0.701528L8.08057 20.2201L0 31.0939H2.96201C4.36507 31.0939 5.24847 30.6019 6.00197 29.6181L10.6788 23.4304L21.6434 38.5243C22.345 39.5081 23.2803 40 24.6834 40H27.8793L13.3031 20.2201ZM73.1148 31.0939H77.35V10.2265H73.1148V31.0939ZM39.5714 31.0939H43.8065V10.2265H39.5714V31.0939ZM103.696 38.4466L119 10.2265H116.714C115.31 10.2265 114.245 10.6408 113.674 11.7023L107.646 22.8608L102.423 11.7023C101.878 10.589 100.786 10.2265 99.3832 10.2265H97.1747L105.229 27.2362L98.214 40H100.5C101.929 40 103.073 39.5599 103.696 38.4466ZM48.8472 10.2265V31.0939H53.0823V16.7767C54.4074 14.9385 56.2782 13.7994 58.6166 13.7994C61.7345 13.7994 63.8651 15.767 63.8651 19.7023V29.1003C63.8651 30.2913 64.6965 31.0939 65.8397 31.0939H68.1002V18.9515C68.1002 13.5405 64.6445 9.78641 59.6559 9.78641C56.9797 9.78641 54.7712 10.7184 53.0823 12.2718V10.2265H48.8472ZM85.1967 23.6893C85.1967 28.2201 87.9769 31.4563 92.9915 31.4563C94.2127 31.4563 95.252 31.301 96.0834 31.0421L95.226 27.3657C94.6803 27.4951 94.0308 27.5728 93.3033 27.5728C91.2507 27.5728 89.4319 26.4595 89.4319 23.6117V13.9806H95.3559L93.641 10.2265H89.4579V1.83819L85.2227 3.67638V10.2265H80.7537V13.9806H85.2227L85.1967 23.6893ZM26.5541 13.9806V31.068H30.7893V13.9806H36.2196V10.2265H30.7893V8.67314C30.7893 5.12621 32.9199 3.93528 35.0245 3.93528C35.5701 3.93528 36.0378 4.01295 36.4535 4.1424L37.3109 0.414239C36.7653 0.20712 35.9079 0 34.6867 0C29.4382 0 26.5541 3.8835 26.5541 8.59547V10.2265H24.3456L21.6694 13.9806H26.5541Z" fill="black"/>
</g>
<defs>
<clipPath id="clip0_882_15175">
<rect width="119" height="40" fill="white"/>
</clipPath>
</defs>
</svg>
