<svg width="137" height="24" viewBox="0 0 137 24" fill="none" xmlns="http://www.w3.org/2000/svg">
<path d="M117.474 22.4158V4.20036H114.02V1.67459H124.08V4.20036H120.626V22.4158H117.474Z" fill="black"/>
<path d="M125.19 1.67459H128.542L129.705 11.0064C130.056 13.7059 130.322 16.5061 130.7 19.546H130.977C131.355 16.3324 131.632 13.758 131.975 11.0064L133.11 1.67459H136.437L133.033 22.4158H128.697L125.19 1.67459Z" fill="black"/>
<path d="M41.9144 22.4158V15.7313L38.0299 1.67459H41.1823L42.5414 8.00464C42.8706 9.48119 43.1999 11.055 43.424 12.3057H43.5781C43.8023 11.055 44.1316 9.48119 44.4608 8.02896L45.8619 1.67459H49.0143L45.0913 15.7313V22.4158H41.9144Z" fill="black"/>
<path d="M57.6974 13.8311V15.8565C57.6974 20.6857 56.1107 22.6591 53.0599 22.6591C49.8059 22.6591 48.4189 20.6336 48.4189 15.8565V13.8311C48.4189 8.86637 49.9706 7.0285 53.123 7.0285C56.1878 7.0285 57.6974 8.95323 57.6974 13.8311ZM54.6116 12.4414C54.6116 9.7662 54.0687 9.11652 53.0599 9.11652C52.0511 9.11652 51.5082 9.7662 51.5082 12.4414V17.2045C51.5082 19.9561 52.1002 20.5815 53.0599 20.5815C54.0196 20.5815 54.6116 19.9561 54.6116 17.2045V12.4414Z" fill="black"/>
<path d="M59.8446 18.5351V7.32727H62.8183V18.3823C62.8183 19.9839 63.1966 20.4356 64.0548 20.4356C64.6607 20.4356 65.2912 20.109 65.743 19.3099V7.32727H68.7203V22.4159H66.4751L66.0233 20.2931H65.9462C65.1651 21.9434 63.9532 22.5409 62.5416 22.5409C60.8288 22.534 59.8446 21.3736 59.8446 18.5351Z" fill="black"/>
<path d="M71.9498 22.4158V4.20036H68.4926V1.67459H78.5558V4.20036H75.1022V22.4158H71.9498Z" fill="black"/>
<path d="M78.0759 18.5351V7.32727H81.0532V18.3823C81.0532 19.9839 81.4314 20.4356 82.2896 20.4356C82.8921 20.4356 83.5225 20.109 83.9779 19.3099V7.32727H86.9551V22.4159H84.7099L84.2546 20.2931H84.181C83.3964 21.9434 82.188 22.5409 80.7765 22.5409C79.0601 22.534 78.0759 21.3736 78.0759 18.5351Z" fill="black"/>
<path d="M99.0079 13.6815V15.9815C99.0079 20.498 97.9571 22.5339 95.7294 22.5339C95.1154 22.5591 94.5065 22.4133 93.9717 22.113C93.4368 21.8128 92.9974 21.3701 92.7031 20.835H92.5525L92.1882 22.4158H89.6137V0.875525H92.591V5.17662C92.591 6.3266 92.5665 8.05329 92.5384 9.3457H92.6645C93.5472 7.60859 94.6821 7.07008 95.943 7.07008C98.1392 7.07703 99.0079 8.70297 99.0079 13.6815ZM95.8555 13.9317C95.8555 10.3532 95.4246 9.22758 94.3914 9.22758C93.6103 9.22758 92.8292 9.85294 92.6015 10.93V19.5356C92.7601 19.8132 92.9911 20.0432 93.2703 20.2016C93.5495 20.3599 93.8666 20.4407 94.1882 20.4355C95.2985 20.4355 95.8555 19.3932 95.8555 15.7835V13.9317Z" fill="black"/>
<path d="M109.712 15.8565H103.94V17.3574C103.94 19.7094 104.241 20.5849 105.4 20.5849C106.56 20.5849 106.938 19.7963 106.966 17.9966L109.614 18.146C109.838 21.1721 108.024 22.6347 105.327 22.6347C101.87 22.6347 100.889 20.3348 100.889 16.4575V13.633C100.889 9.17903 102.174 7.07712 105.425 7.07712C108.675 7.07712 109.712 8.86635 109.712 13.4801V15.8565ZM103.94 12.4309V14.1333H106.787V12.4309C106.787 9.82871 106.462 9.17903 105.351 9.17903C104.241 9.17903 103.94 9.85303 103.94 12.4309Z" fill="black"/>
<path d="M4.43591 23.26C3.7058 23.0573 3.04003 22.673 2.50179 22.1434C1.96355 21.6137 1.57071 20.9565 1.36057 20.2339C0.660034 17.5588 0.660034 11.9792 0.660034 11.9792C0.660034 11.9792 0.660034 6.42038 1.36057 3.75217C1.56673 3.02763 1.95824 2.36826 2.49708 1.83805C3.03593 1.30784 3.70381 0.924802 4.43591 0.726115C7.10844 5.39503e-08 17.9002 0 17.9002 0C17.9002 0 28.7199 5.39503e-08 31.3924 0.726115C32.1252 0.918016 32.7937 1.29917 33.3296 1.83075C33.8655 2.36232 34.2498 3.02532 34.4433 3.75217C35.1893 6.40301 35.1893 11.9931 35.1893 11.9931C35.1893 11.9931 35.1893 17.5727 34.4573 20.2478C34.2599 20.9728 33.8743 21.6337 33.339 22.1647C32.8037 22.6957 32.1373 23.0781 31.4064 23.2739C28.7339 24 17.9142 24 17.9142 24C17.9142 24 7.12245 23.9861 4.43591 23.26ZM14.4851 17.1314L23.4379 11.9931L14.4851 6.85466V17.1314Z" fill="#FF0000"/>
<path d="M14.4851 17.1314L23.4378 11.9793L14.4851 6.85466V17.1314Z" fill="white"/>
</svg>
